<svg
  width="28"
  height="13"
  viewBox="0 0 28 13"
  fill="none"
  xmlns="http://www.w3.org/2000/svg"
>
  <path
    fill-rule="evenodd"
    clip-rule="evenodd"
    d="M26 1H14.1871C13.6348 1 13.1871 1.44772 13.1871 2V8.56881L15.0679 6.4355C16.0877 5.27873 17.9015 5.31215 18.878 6.50571L21.2539 9.40955C21.4287 9.62325 21.7437 9.65477 21.9574 9.47996L23.1704 8.48785C24.044 7.77334 25.2879 7.7327 26.2063 8.38866L27 8.9556V2C27 1.44772 26.5523 1 26 1ZM13.1871 10.4839V10.0809L15.818 7.09682C16.4299 6.40276 17.5181 6.42281 18.1041 7.13895L20.4799 10.0428C21.0045 10.6839 21.9494 10.7784 22.5906 10.254L23.8035 9.26191C24.3277 8.8332 25.074 8.80882 25.6251 9.2024L27 10.1845V10.4839C27 11.0362 26.5523 11.4839 26 11.4839H14.1871C13.6348 11.4839 13.1871 11.0362 13.1871 10.4839ZM14.1871 0C13.0825 0 12.1871 0.895432 12.1871 2V10.4839C12.1871 11.5885 13.0825 12.4839 14.1871 12.4839H26C27.1046 12.4839 28 11.5885 28 10.4839V2C28 0.895431 27.1046 0 26 0H14.1871ZM24.5031 4.16133C24.5031 4.98798 23.833 5.65811 23.0064 5.65811C22.1797 5.65811 21.5096 4.98798 21.5096 4.16133C21.5096 3.33468 22.1797 2.66455 23.0064 2.66455C23.833 2.66455 24.5031 3.33468 24.5031 4.16133ZM25.5031 4.16133C25.5031 5.54026 24.3853 6.65811 23.0064 6.65811C21.6274 6.65811 20.5096 5.54026 20.5096 4.16133C20.5096 2.7824 21.6274 1.66455 23.0064 1.66455C24.3853 1.66455 25.5031 2.7824 25.5031 4.16133Z"
    fill="#F86E92"
  />
  <line
    x1="9.35355"
    y1="3.35355"
    x2="2.35355"
    y2="10.3536"
    stroke="#F86E92"
  />
  <line
    x1="9.64645"
    y1="10.3536"
    x2="2.64645"
    y2="3.35355"
    stroke="#F86E92"
  />
</svg>
