<svg
  width="48"
  height="48"
  viewBox="0 0 48 48"
  fill="none"
  xmlns="http://www.w3.org/2000/svg"
>
  <path
    d="M29.6563 29.6563C31.2188 28.0938 32 26.2083 32 24C32 21.7917 31.2188 19.9063 29.6563 18.3438C28.0938 16.7813 26.2083 16 24 16C21.7917 16 19.9062 16.7813 18.3437 18.3438C16.7812 19.9063 16 21.7917 16 24C16 26.2083 16.7812 28.0938 18.3437 29.6563C19.9062 31.2188 21.7917 32 24 32C26.2083 32 28.0938 31.2188 29.6563 29.6563ZM32.7188 15.2813C35.1146 17.6771 36.3125 20.5833 36.3125 24C36.3125 27.4167 35.1146 30.3229 32.7188 32.7188C30.3229 35.1146 27.4167 36.3125 24 36.3125C20.5833 36.3125 17.6771 35.1146 15.2812 32.7188C12.8854 30.3229 11.6875 27.4167 11.6875 24C11.6875 20.5833 12.8854 17.6771 15.2812 15.2813C17.6771 12.8854 20.5833 11.6875 24 11.6875C27.4167 11.6875 30.3229 12.8854 32.7188 15.2813ZM38.8438 9.15625C39.4062 9.71875 39.6875 10.3958 39.6875 11.1875C39.6875 11.9792 39.4062 12.6563 38.8438 13.2188C38.2812 13.7813 37.6042 14.0625 36.8125 14.0625C36.0208 14.0625 35.3438 13.7813 34.7812 13.2188C34.2188 12.6563 33.9375 11.9792 33.9375 11.1875C33.9375 10.3958 34.2188 9.71875 34.7812 9.15625C35.3438 8.59375 36.0208 8.3125 36.8125 8.3125C37.6042 8.3125 38.2812 8.59375 38.8438 9.15625ZM26.375 4.3125C24.9375 4.3125 24.1458 4.3125 24 4.3125C23.8542 4.3125 23.0521 4.3125 21.5937 4.3125C20.1562 4.29167 19.0625 4.29167 18.3125 4.3125C17.5625 4.3125 16.5521 4.34375 15.2812 4.40625C14.0312 4.44792 12.9583 4.55208 12.0625 4.71875C11.1875 4.86458 10.4479 5.05208 9.84375 5.28125C8.80208 5.69792 7.88542 6.30208 7.09375 7.09375C6.30208 7.88542 5.69792 8.80208 5.28125 9.84375C5.05208 10.4479 4.85417 11.1979 4.6875 12.0938C4.54167 12.9688 4.4375 14.0417 4.375 15.3125C4.33333 16.5625 4.30208 17.5625 4.28125 18.3125C4.28125 19.0625 4.28125 20.1667 4.28125 21.625C4.30208 23.0625 4.3125 23.8542 4.3125 24C4.3125 24.1458 4.30208 24.9479 4.28125 26.4063C4.28125 27.8438 4.28125 28.9375 4.28125 29.6875C4.30208 30.4375 4.33333 31.4479 4.375 32.7188C4.4375 33.9688 4.54167 35.0417 4.6875 35.9375C4.85417 36.8125 5.05208 37.5521 5.28125 38.1562C5.69792 39.1979 6.30208 40.1146 7.09375 40.9062C7.88542 41.6979 8.80208 42.3021 9.84375 42.7188C10.4479 42.9479 11.1875 43.1458 12.0625 43.3125C12.9583 43.4583 14.0312 43.5625 15.2812 43.625C16.5521 43.6667 17.5625 43.6979 18.3125 43.7188C19.0625 43.7188 20.1562 43.7188 21.5937 43.7188C23.0521 43.6979 23.8542 43.6875 24 43.6875C24.1458 43.6875 24.9375 43.6979 26.375 43.7188C27.8333 43.7188 28.9375 43.7188 29.6875 43.7188C30.4375 43.6979 31.4375 43.6667 32.6875 43.625C33.9583 43.5625 35.0312 43.4583 35.9062 43.3125C36.8021 43.1458 37.5521 42.9479 38.1562 42.7188C39.1979 42.3021 40.1146 41.6979 40.9062 40.9062C41.6979 40.1146 42.3021 39.1979 42.7187 38.1562C42.9479 37.5521 43.1354 36.8125 43.2812 35.9375C43.4479 35.0417 43.5521 33.9688 43.5937 32.7188C43.6562 31.4479 43.6875 30.4375 43.6875 29.6875C43.7083 28.9375 43.7083 27.8438 43.6875 26.4063C43.6875 24.9479 43.6875 24.1458 43.6875 24C43.6875 23.8542 43.6875 23.0625 43.6875 21.625C43.7083 20.1667 43.7083 19.0625 43.6875 18.3125C43.6875 17.5625 43.6562 16.5625 43.5937 15.3125C43.5521 14.0417 43.4479 12.9688 43.2812 12.0938C43.1354 11.1979 42.9479 10.4479 42.7187 9.84375C42.3021 8.80208 41.6979 7.88542 40.9062 7.09375C40.1146 6.30208 39.1979 5.69792 38.1562 5.28125C37.5521 5.05208 36.8021 4.86458 35.9062 4.71875C35.0312 4.55208 33.9583 4.44792 32.6875 4.40625C31.4375 4.34375 30.4375 4.3125 29.6875 4.3125C28.9375 4.29167 27.8333 4.29167 26.375 4.3125ZM47.8437 14.0938C47.9479 15.9271 48 19.2292 48 24C48 28.7708 47.9479 32.0729 47.8437 33.9062C47.6354 38.2396 46.3438 41.5938 43.9688 43.9688C41.5938 46.3438 38.2396 47.6354 33.9062 47.8438C32.0729 47.9479 28.7708 48 24 48C19.2292 48 15.9271 47.9479 14.0937 47.8438C9.76042 47.6354 6.40625 46.3438 4.03125 43.9688C1.65625 41.5938 0.364583 38.2396 0.15625 33.9062C0.0520833 32.0729 0 28.7708 0 24C0 19.2292 0.0520833 15.9271 0.15625 14.0938C0.364583 9.76042 1.65625 6.40625 4.03125 4.03125C6.40625 1.65625 9.76042 0.364583 14.0937 0.156252C15.9271 0.052084 19.2292 0 24 0C28.7708 0 32.0729 0.052084 33.9062 0.156252C38.2396 0.364583 41.5938 1.65625 43.9688 4.03125C46.3438 6.40625 47.6354 9.76042 47.8437 14.0938Z"
    fill="#158AD3"
  />
</svg>
