<svg
  width="74"
  height="74"
  viewBox="0 0 74 74"
  fill="none"
  xmlns="http://www.w3.org/2000/svg"
>
  <path
    d="M45.1272 45.1731C48.9535 41.3469 50.8666 36.7524 50.8666 31.3899C50.8666 26.0273 48.9535 21.4474 45.1272 17.6501C41.3299 13.8238 36.75 11.9107 31.3874 11.9107C26.0249 11.9107 21.4304 13.8238 17.6042 17.6501C13.8069 21.4474 11.9083 26.0273 11.9083 31.3899C11.9083 36.7524 13.8069 41.3469 17.6042 45.1731C21.4304 48.9704 26.0249 50.869 31.3874 50.869C36.75 50.869 41.3299 48.9704 45.1272 45.1731ZM73.1285 67.5655C73.1285 69.0728 72.5777 70.3772 71.4762 71.4787C70.3747 72.5802 69.0703 73.131 67.563 73.131C65.9977 73.131 64.6933 72.5802 63.6498 71.4787L48.7361 56.6084C43.5474 60.2028 37.7645 62 31.3874 62C27.2423 62 23.2711 61.2029 19.4738 59.6086C15.7055 57.9853 12.4445 55.8113 9.69076 53.0865C6.966 50.3328 4.79198 47.0718 3.16872 43.3035C1.57444 39.5062 0.777302 35.535 0.777302 31.3899C0.777302 27.2448 1.57444 23.2881 3.16872 19.5198C4.79198 15.7225 6.966 12.4615 9.69076 9.7367C12.4445 6.98295 15.7055 4.80893 19.4738 3.21466C23.2711 1.59139 27.2423 0.779761 31.3874 0.779761C35.5325 0.779761 39.4892 1.59139 43.2575 3.21466C47.0548 4.80893 50.3158 6.98295 53.0406 9.7367C55.7944 12.4615 57.9684 15.7225 59.5626 19.5198C61.1859 23.2881 61.9975 27.2448 61.9975 31.3899C61.9975 37.767 60.2004 43.5499 56.606 48.7385L71.5197 63.6523C72.5922 64.7248 73.1285 66.0292 73.1285 67.5655Z"
    fill="#CCCCCC"
  />
</svg>
