<svg
  width="92"
  height="109"
  viewBox="0 0 92 109"
  fill="none"
  xmlns="http://www.w3.org/2000/svg"
  xmlns:svg="http://www.w3.org/2000/svg"
>
  <rect
    x="0.564721"
    y="11.9226"
    width="78"
    height="97"
    transform="rotate(-8 0.564721 11.9226)"
    fill="white"
    stroke="#999999"
  />
  <rect
    x="37.9214"
    y="26.8457"
    width="34"
    height="6"
    transform="rotate(-8 37.9214 26.8457)"
    fill="#E5E5E5"
  />
  <path
    d="M25.5953 25.8493C25.8385 26.5712 25.9452 27.3462 25.8929 28.1354L25.1446 28.0858C25.1226 28.4171 25.0686 28.7519 24.9799 29.0864C24.8913 29.4209 24.7725 29.7385 24.6275 30.0373L25.3022 30.3648C24.9568 31.0763 24.4803 31.6968 23.9115 32.2035L23.4126 31.6435C22.9057 32.0951 22.3151 32.4431 21.6774 32.6664L21.9253 33.3742C21.2044 33.6267 20.4302 33.7404 19.6424 33.6921L19.6884 32.9435C19.358 32.9232 19.0243 32.8702 18.6911 32.7819C18.3578 32.6936 18.0417 32.5744 17.7447 32.4284L17.4138 33.1015C16.7055 32.7534 16.0892 32.2712 15.588 31.6949L16.1539 31.2027C15.7105 30.6929 15.3697 30.0981 15.1529 29.4547L14.4422 29.6942C14.199 28.9723 14.0923 28.1972 14.1446 27.4081L14.8929 27.4577C14.9149 27.1263 14.969 26.7916 15.0576 26.457C15.1463 26.1225 15.2651 25.8049 15.4101 25.5062L14.7354 25.1787C15.0807 24.4672 15.5573 23.8467 16.126 23.34L16.6249 23.9C17.1319 23.4484 17.7224 23.1004 18.3601 22.8771L18.1122 22.1692C18.8331 21.9168 19.6073 21.8031 20.3951 21.8514L20.3492 22.6C20.6795 22.6202 21.0132 22.6732 21.3464 22.7616C21.6797 22.8499 21.9958 22.969 22.2929 23.115L22.6237 22.442C23.332 22.7901 23.9483 23.2723 24.4496 23.8486L23.8836 24.3408C24.327 24.8506 24.6678 25.4454 24.8846 26.0887L25.5953 25.8493Z"
    stroke="#999999"
    stroke-width="1.5"
    stroke-dasharray="3 3"
  />
  <path
    d="M30.4275 38.3237C30.8432 39.0361 31.1723 39.8105 31.3982 40.6342L30.6749 40.8326C30.7759 41.2009 30.8547 41.5801 30.9094 41.9692C30.964 42.3582 30.9929 42.7445 30.9973 43.1264L31.7472 43.1177C31.7571 43.9718 31.6542 44.8069 31.451 45.6063L30.7241 45.4215C30.532 46.1773 30.2426 46.8986 29.8682 47.5689L30.523 47.9346C30.1135 48.6677 29.6104 49.3443 29.0273 49.9459L28.4887 49.424C27.9536 49.9762 27.3459 50.4594 26.6783 50.8571L27.0621 51.5015C26.3526 51.9242 25.5804 52.2583 24.7581 52.4867L24.5574 51.7641C24.1902 51.8661 23.8118 51.9453 23.4236 51.9999C23.0354 52.0545 22.6499 52.0826 22.2688 52.0857L22.275 52.8357C21.4216 52.8427 20.5872 52.7344 19.7887 52.5237L19.9801 51.7985C19.2287 51.6002 18.5113 51.3032 17.8447 50.9199L17.4709 51.5701C16.7446 51.1525 16.0744 50.6408 15.4788 50.049L16.0074 49.5169C15.4627 48.9758 14.9857 48.3622 14.5927 47.6887L13.9449 48.0666C13.5292 47.3542 13.2001 46.5798 12.9742 45.7561L13.6975 45.5577C13.5965 45.1894 13.5177 44.8101 13.463 44.4211C13.4084 44.0321 13.3795 43.6458 13.3751 43.2639L12.6252 43.2726C12.6153 42.4185 12.7182 41.5834 12.9214 40.784L13.6483 40.9688C13.8404 40.213 14.1298 39.4917 14.5042 38.8214L13.8494 38.4556C14.2589 37.7225 14.7621 37.046 15.3451 36.4444L15.8837 36.9663C16.4188 36.4141 17.0265 35.9309 17.6942 35.5332L17.3103 34.8888C18.0198 34.4661 18.792 34.132 19.6143 33.9036L19.815 34.6262C20.1822 34.5242 20.5606 34.4449 20.9488 34.3904C21.337 34.3358 21.7225 34.3077 22.1036 34.3046L22.0974 33.5546C22.9508 33.5475 23.7852 33.6559 24.5837 33.8666L24.3923 34.5918C25.1437 34.7901 25.8611 35.0871 26.5277 35.4704L26.9015 34.8202C27.6278 35.2378 28.298 35.7495 28.8937 36.3413L28.365 36.8734C28.9097 37.4145 29.3867 38.0281 29.7797 38.7016L30.4275 38.3237Z" stroke="#999999"
    stroke-width="1.5"
    stroke-dasharray="3 3"
    />
  <rect
    x="7.62329"
    y="45.2417"
    width="31.6178"
    height="13.3495"
    transform="rotate(-8 7.62329 45.2417)" fill="#FFF"
  />
  <rect
    x="41.5852"
    y="52.9155"
    width="34"
    height="6"
    transform="rotate(-8 41.5852 52.9155)"
    fill="#E5E5E5"
  />
  <path
    d="M29.2592 51.9191C29.5025 52.641 29.6092 53.4161 29.5569 54.2052L28.8085 54.1556C28.7866 54.487 28.7325 54.8217 28.6438 55.1562C28.5552 55.4908 28.4364 55.8084 28.2914 56.1071L28.9661 56.4346C28.6207 57.1461 28.1442 57.7666 27.5754 58.2733L27.0765 57.7133C26.5696 58.1649 25.979 58.5129 25.3413 58.7362L25.5893 59.444C24.8683 59.6965 24.0942 59.8102 23.3064 59.7619L23.3523 59.0133C23.0219 58.9931 22.6883 58.94 22.355 58.8517C22.0218 58.7634 21.7056 58.6442 21.4086 58.4982L21.0778 59.1713C20.3694 58.8232 19.7532 58.341 19.2519 57.7647L19.8178 57.2725C19.3744 56.7627 19.0337 56.1679 18.8169 55.5245L18.1061 55.764C17.8629 55.0421 17.7562 54.267 17.8085 53.4779L18.5569 53.5275C18.5788 53.1962 18.6329 52.8614 18.7215 52.5269C18.8102 52.1923 18.929 51.8747 19.074 51.576L18.3993 51.2485C18.7447 50.537 19.2212 49.9165 19.79 49.4098L20.2889 49.9698C20.7958 49.5182 21.3864 49.1702 22.024 48.9469L21.7761 48.2391C22.4971 47.9866 23.2712 47.8729 24.059 47.9212L24.0131 48.6698C24.3435 48.6901 24.6771 48.7431 25.0104 48.8314C25.3436 48.9197 25.6598 49.0389 25.9568 49.1849L26.2876 48.5118C26.996 48.8599 27.6122 49.3421 28.1135 49.9184L27.5476 50.4106C27.991 50.9204 28.3317 51.5152 28.5485 52.1586L29.2592 51.9191Z"
    stroke="#999999"
    stroke-width="1.5"
    stroke-dasharray="3 3"
  />
  <path
    d="M34.0914 64.3935C34.5071 65.1059 34.8362 65.8803 35.0621 66.704L34.3389 66.9024C34.4399 67.2707 34.5186 67.65 34.5733 68.039C34.628 68.4281 34.6568 68.8144 34.6612 69.1962L35.4112 69.1875C35.4211 70.0417 35.3182 70.8767 35.1149 71.6761L34.3881 71.4914C34.1959 72.2471 33.9065 72.9685 33.5322 73.6387L34.1869 74.0045C33.7775 74.7376 33.2743 75.4142 32.6913 76.0158L32.1527 75.4938C31.6175 76.046 31.0098 76.5292 30.3422 76.927L30.7261 77.5713C30.0166 77.994 29.2443 78.3281 28.4221 78.5565L28.2213 77.8339C27.8541 77.9359 27.4758 78.0152 27.0876 78.0697C26.6994 78.1243 26.3139 78.1524 25.9328 78.1556L25.9389 78.9055C25.0856 78.9126 24.2512 78.8043 23.4526 78.5935L23.644 77.8683C22.8927 77.67 22.1753 77.373 21.5087 76.9897L21.1348 77.6399C20.4085 77.2223 19.7384 76.7106 19.1427 76.1188L19.6713 75.5868C19.1267 75.0456 18.6496 74.432 18.2566 73.7585L17.6089 74.1365C17.1932 73.424 16.8641 72.6497 16.6381 71.8259L17.3614 71.6275C17.2604 71.2593 17.1817 70.88 17.127 70.4909C17.0723 70.1019 17.0435 69.7156 17.0391 69.3337L16.2891 69.3424C16.2792 68.4883 16.3821 67.6532 16.5853 66.8538L17.3122 67.0386C17.5043 66.2828 17.7938 65.5615 18.1681 64.8912L17.5134 64.5255C17.9228 63.7924 18.426 63.1158 19.009 62.5142L19.5476 63.0361C20.0828 62.484 20.6905 62.0007 21.3581 61.603L20.9742 60.9587C21.6837 60.536 22.456 60.2018 23.2782 59.9734L23.479 60.696C23.8462 60.594 24.2245 60.5148 24.6127 60.4602C25.0009 60.4057 25.3864 60.3775 25.7675 60.3744L25.7613 59.6244C26.6147 59.6174 27.4491 59.7257 28.2476 59.9364L28.0562 60.6616C28.8076 60.8599 29.525 61.1569 30.1916 61.5402L30.5655 60.89C31.2918 61.3076 31.9619 61.8193 32.5576 62.4111L32.029 62.9432C32.5736 63.4843 33.0506 64.0979 33.4436 64.7715L34.0914 64.3935Z"
    stroke="#999999"
    stroke-width="1.5"
    stroke-dasharray="3 3"
  />
  <rect
    x="11.2872"
    y="71.3115"
    width="31.6178"
    height="13.3495"
    transform="rotate(-8 11.2872 71.3115)"
    fill="#FFF"
  />
  <rect
    x="45.249"
    y="78.9858"
    width="34"
    height="6"
    transform="rotate(-8 45.249 78.9858)"
    fill="#E5E5E5"
  />
  <path
    d="M32.9231 77.9894C33.1663 78.7113 33.273 79.4864 33.2207 80.2755L32.4723 80.2259C32.4504 80.5573 32.3963 80.892 32.3077 81.2266C32.219 81.5611 32.1002 81.8787 31.9552 82.1774L32.6299 82.5049C32.2846 83.2164 31.808 83.8369 31.2392 84.3436L30.7403 83.7836C30.2334 84.2352 29.6428 84.5832 29.0052 84.8065L29.2531 85.5144C28.5322 85.7668 27.758 85.8805 26.9702 85.8322L27.0161 85.0836C26.6858 85.0634 26.3521 85.0103 26.0188 84.922C25.6856 84.8337 25.3695 84.7146 25.0724 84.5686L24.7416 85.2416C24.0332 84.8935 23.417 84.4113 22.9157 83.835L23.4816 83.3428C23.0382 82.833 22.6975 82.2382 22.4807 81.5949L21.77 81.8343C21.5267 81.1124 21.42 80.3374 21.4723 79.5482L22.2207 79.5978C22.2426 79.2665 22.2967 78.9317 22.3854 78.5972C22.474 78.2627 22.5928 77.9451 22.7378 77.6463L22.0631 77.3188C22.4085 76.6073 22.885 75.9868 23.4538 75.4801L23.9527 76.0401C24.4596 75.5885 25.0502 75.2405 25.6879 75.0172L25.44 74.3094C26.1609 74.0569 26.935 73.9432 27.7228 73.9915L27.6769 74.7401C28.0073 74.7604 28.3409 74.8134 28.6742 74.9017C29.0074 74.99 29.3236 75.1092 29.6206 75.2552L29.9514 74.5821C30.6598 74.9302 31.276 75.4124 31.7773 75.9887L31.2114 76.4809C31.6548 76.9907 31.9956 77.5855 32.2123 78.2289L32.9231 77.9894Z"
    stroke="#999999"
    stroke-width="1.5"
    stroke-dasharray="3 3"
  />
  <path
    d="M37.7553 90.4638C38.1709 91.1762 38.5 91.9506 38.726 92.7743L38.0027 92.9727C38.1037 93.341 38.1824 93.7203 38.2371 94.1093C38.2918 94.4984 38.3206 94.8847 38.3251 95.2665L39.075 95.2579C39.0849 96.112 38.982 96.9471 38.7788 97.7465L38.0519 97.5617C37.8598 98.3174 37.5704 99.0388 37.196 99.7091L37.8508 100.075C37.4413 100.808 36.9381 101.484 36.3551 102.086L35.8165 101.564C35.2814 102.116 34.6736 102.6 34.006 102.997L34.3899 103.642C33.6804 104.064 32.9081 104.398 32.0859 104.627L31.8851 103.904C31.5179 104.006 31.1396 104.085 30.7514 104.14C30.3632 104.195 29.9777 104.223 29.5966 104.226L29.6028 104.976C28.7494 104.983 27.915 104.875 27.1165 104.664L27.3079 103.939C26.5565 103.74 25.8391 103.443 25.1725 103.06L24.7986 103.71C24.0724 103.293 23.4022 102.781 22.8065 102.189L23.3351 101.657C22.7905 101.116 22.3135 100.502 21.9205 99.8288L21.2727 100.207C20.857 99.4944 20.5279 98.72 20.302 97.8962L21.0252 97.6979C20.9242 97.3296 20.8455 96.9503 20.7908 96.5612C20.7361 96.1722 20.7073 95.7859 20.7029 95.404L19.9529 95.4127C19.943 94.5586 20.0459 93.7235 20.2492 92.9241L20.976 93.1089C21.1682 92.3531 21.4576 91.6318 21.832 90.9615L21.1772 90.5958C21.5866 89.8627 22.0898 89.1861 22.6729 88.5845L23.2114 89.1065C23.7466 88.5543 24.3543 88.071 25.0219 87.6733L24.638 87.029C25.3475 86.6063 26.1198 86.2722 26.942 86.0437L27.1428 86.7663C27.51 86.6643 27.8883 86.5851 28.2765 86.5305C28.6647 86.476 29.0503 86.4478 29.4313 86.4447L29.4252 85.6947C30.2785 85.6877 31.1129 85.796 31.9115 86.0068L31.7201 86.7319C32.4714 86.9302 33.1888 87.2273 33.8555 87.6105L34.2293 86.9603C34.9556 87.3779 35.6257 87.8896 36.2214 88.4815L35.6928 89.0135C36.2374 89.5546 36.7145 90.1682 37.1075 90.8418L37.7553 90.4638Z"
    stroke="#999999"
    stroke-width="1.5"
    stroke-dasharray="3 3"
  />
  <rect
    x="14.951"
    y="97.3818"
    width="31.6178"
    height="10.1000"
    transform="rotate(-8 14.951 97.3818)"
    fill="#FFF"
  />
</svg>
