<svg
  width="46"
  height="46"
  viewBox="0 0 46 46"
  fill="none"
  xmlns="http://www.w3.org/2000/svg"
>
  <path
    d="M39.2298 6.77016C43.7433 11.2218 46 16.6317 46 23C46 29.3683 43.7433 34.8091 39.2298 39.3226C34.7782 43.7742 29.3683 46 23 46C20.6505 46 18.3938 45.6599 16.2298 44.9798C17.7137 42.5067 18.6411 40.4973 19.0121 38.9516L20.496 33.4798C20.8669 34.2218 21.547 34.8401 22.5363 35.3347C23.5255 35.8293 24.6075 36.0766 25.7823 36.0766C29.1828 36.0766 31.996 34.7164 34.2218 31.996C36.5094 29.2137 37.6532 25.8132 37.6532 21.7944C37.6532 18.0228 36.293 14.8696 33.5726 12.3347C30.8522 9.79973 27.4825 8.53226 23.4637 8.53226C18.7648 8.53226 15.0551 9.89247 12.3347 12.6129C9.67608 15.3333 8.34677 18.6102 8.34677 22.4435C8.34677 24.2366 8.77957 26.0296 9.64516 27.8226C10.5108 29.5538 11.6237 30.7285 12.9839 31.3468C13.4167 31.5323 13.664 31.4395 13.7258 31.0685C13.7876 30.9449 13.8804 30.543 14.004 29.8629C14.1895 29.121 14.3132 28.6573 14.375 28.4718C14.4368 28.2245 14.375 28.0081 14.1895 27.8226C13.0766 26.4005 12.5202 24.6384 12.5202 22.5363C12.5202 19.8777 13.4476 17.5591 15.3024 15.5806C17.2191 13.5403 19.754 12.5202 22.9073 12.5202C25.7513 12.5202 28.0699 13.4167 29.8629 15.2097C31.6559 16.9409 32.5524 19.1667 32.5524 21.8871C32.5524 23.9274 32.2124 25.7513 31.5323 27.3589C30.914 28.9664 30.0484 30.2339 28.9355 31.1613C27.8226 32.0269 26.6169 32.4597 25.3185 32.4597C24.1438 32.4597 23.2164 32.0578 22.5363 31.254C21.8562 30.3884 21.6398 29.3992 21.8871 28.2863C22.0108 27.668 22.2581 26.8024 22.629 25.6895C23 24.5766 23.2782 23.6183 23.4637 22.8145C23.6492 21.9489 23.7419 21.207 23.7419 20.5887C23.7419 20.0323 23.6492 19.5067 23.4637 19.0121C23.2782 18.5175 22.9382 18.1465 22.4435 17.8992C22.0108 17.5901 21.4852 17.4355 20.8669 17.4355C19.6922 17.4355 18.703 17.961 17.8992 19.0121C17.0954 20.0632 16.6935 21.3925 16.6935 23C16.6935 23.2473 16.6935 23.5255 16.6935 23.8347C16.7554 24.082 16.7863 24.3293 16.7863 24.5766C16.8481 24.7621 16.9099 24.9785 16.9718 25.2258C17.0336 25.4113 17.0645 25.5659 17.0645 25.6895C17.1263 25.8132 17.1882 25.9368 17.25 26.0605C17.3118 26.1841 17.3427 26.2769 17.3427 26.3387L17.4355 26.4315C15.8898 32.7997 14.9624 36.6022 14.6532 37.8387C14.3441 39.3844 14.3441 41.5793 14.6532 44.4234C10.2634 42.754 6.70833 39.9718 3.9879 36.0766C1.3293 32.1815 0 27.8226 0 23C0 16.6317 2.22581 11.2218 6.67742 6.77016C11.1909 2.25672 16.6317 0 23 0C29.3683 0 34.7782 2.25672 39.2298 6.77016Z"
    fill="#CCCCCC"
  />
</svg>
