<svg
  width="42"
  height="42"
  viewBox="0 0 42 42"
  fill="none"
  xmlns="http://www.w3.org/2000/svg"
>
  <rect
    x="1"
    y="13.1803"
    width="19"
    height="26.4348"
    rx="3"
    stroke="black"
    stroke-width="2"
  />
  <rect
    x="38.4348"
    y="21.1803"
    width="19"
    height="26.4348"
    rx="2"
    transform="rotate(90 38.4348 21.1803)"
    stroke="black"
    stroke-width="2"
    stroke-dasharray="4 3"
  />
  <path
    fill-rule="evenodd"
    clip-rule="evenodd"
    d="M35.7504 15.0942C35.9807 15.2741 36.2171 15.3492 36.4596 15.3195C36.7021 15.2897 36.9133 15.1596 37.0933 14.9293L40.9498 10.0256C41.1297 9.7952 41.2048 9.55879 41.1751 9.31632C41.1407 9.03655 41.0136 8.81077 40.7937 8.63898C40.5738 8.46718 40.324 8.39846 40.0442 8.43282C39.8018 8.46259 39.5905 8.59265 39.4106 8.82301L36.9456 12.1075C36.9459 11.956 36.9392 11.8243 36.9255 11.7124L36.874 11.2928C36.693 9.81931 36.2427 8.46415 35.5228 7.22726C34.803 5.99036 33.898 4.94188 32.8079 4.08177C31.7178 3.22165 30.4903 2.59142 29.1253 2.19104C27.7603 1.79066 26.3411 1.68093 24.8677 1.86185L21.3985 2.2878C21.1188 2.32216 20.9012 2.4388 20.7457 2.63775C20.5903 2.83669 20.5298 3.07604 20.5641 3.35581C20.5962 3.61693 20.7123 3.82987 20.9123 3.99463C21.1124 4.15939 21.3524 4.22459 21.6321 4.19024L25.1013 3.76428C26.3323 3.61313 27.5172 3.70429 28.6563 4.03774C29.7953 4.3712 30.8151 4.88969 31.7155 5.59323C32.616 6.29676 33.3652 7.15612 33.9632 8.17132C34.5612 9.18652 34.9346 10.3003 35.0834 11.5126L35.1315 11.9043C35.1453 12.0162 35.1508 12.1386 35.1482 12.2714L32.0247 9.72988C31.7943 9.54991 31.5579 9.47481 31.3154 9.50458C31.0357 9.53893 30.8099 9.66605 30.6381 9.88593C30.4663 10.1058 30.3976 10.3556 30.4319 10.6354C30.4617 10.8779 30.5918 11.0891 30.8221 11.2691L35.7504 15.0942Z"
    fill="black"
  />
</svg>
