<svg
  width="44"
  height="42"
  viewBox="0 0 44 42"
  fill="none"
  xmlns="http://www.w3.org/2000/svg"
>
  <rect
    width="19"
    height="26.4348"
    rx="3"
    transform="matrix(-1 0 0 1 42.8292 13.1803)"
    stroke="black"
    stroke-width="2"
  />
  <rect
    width="19"
    height="26.4348"
    rx="2"
    transform="matrix(0 1 1 0 5.39441 21.1803)"
    stroke="black"
    stroke-width="2"
    stroke-dasharray="4 3"
  />
  <path
    fill-rule="evenodd"
    clip-rule="evenodd"
    d="M6.0808 15.0942C5.85045 15.2741 5.61404 15.3492 5.37157 15.3195C5.1291 15.2897 4.91788 15.1596 4.73791 14.9293L0.881414 10.0256C0.70144 9.7952 0.626339 9.55879 0.656111 9.31632C0.690462 9.03655 0.817579 8.81077 1.03746 8.63898C1.25735 8.46718 1.50717 8.39846 1.78694 8.43282C2.02941 8.46259 2.24063 8.59265 2.4206 8.82301L4.88558 12.1075C4.88525 11.956 4.89196 11.8243 4.9057 11.7124L4.95723 11.2928C5.13814 9.81931 5.58852 8.46415 6.30837 7.22726C7.02822 5.99036 7.93318 4.94188 9.02328 4.08177C10.1134 3.22165 11.3409 2.59142 12.7059 2.19104C14.0708 1.79066 15.49 1.68093 16.9635 1.86185L20.4326 2.2878C20.7124 2.32216 20.93 2.4388 21.0854 2.63775C21.2409 2.83669 21.3014 3.07604 21.2671 3.35581C21.235 3.61693 21.1189 3.82987 20.9188 3.99463C20.7187 4.15939 20.4788 4.22459 20.1991 4.19024L16.7299 3.76428C15.4989 3.61313 14.3139 3.70429 13.1749 4.03774C12.0359 4.3712 11.0161 4.88969 10.1156 5.59323C9.21515 6.29676 8.46594 7.15612 7.86798 8.17132C7.27001 9.18652 6.89661 10.3003 6.74775 11.5126L6.69966 11.9043C6.68592 12.0162 6.68036 12.1386 6.68298 12.2714L9.80651 9.72988C10.0369 9.54991 10.2733 9.47481 10.5157 9.50458C10.7955 9.53893 11.0213 9.66605 11.1931 9.88593C11.3649 10.1058 11.4336 10.3556 11.3992 10.6354C11.3695 10.8779 11.2394 11.0891 11.0091 11.2691L6.0808 15.0942Z"
    fill="black"
  />
</svg>
