<svg
  width="28"
  height="13"
  viewBox="0 0 28 13"
  fill="none"
  xmlns="http://www.w3.org/2000/svg"
>
  <path
    fill-rule="evenodd"
    clip-rule="evenodd"
    d="M14.187 1H26C26.5523 1 27 1.44772 27 2V8.9556L26.2063 8.38866C25.2879 7.7327 24.044 7.77334 23.1704 8.48785L21.9574 9.47996C21.7437 9.65477 21.4287 9.62325 21.2539 9.40955L18.878 6.50571C17.9015 5.31215 16.0877 5.27873 15.0679 6.4355L13.187 8.56881V2C13.187 1.44772 13.6348 1 14.187 1ZM13.187 10.0809V10.4839C13.187 11.0362 13.6348 11.4839 14.187 11.4839H26C26.5523 11.4839 27 11.0362 27 10.4839V10.1845L25.625 9.2024C25.074 8.80882 24.3276 8.8332 23.8035 9.26191L22.5905 10.254C21.9493 10.7784 21.0044 10.6839 20.4799 10.0428L18.104 7.13895C17.5181 6.42281 16.4299 6.40276 15.818 7.09682L13.187 10.0809ZM12.187 2C12.187 0.895432 13.0825 0 14.187 0H26C27.1045 0 28 0.895431 28 2V10.4839C28 11.5885 27.1045 12.4839 26 12.4839H14.187C13.0825 12.4839 12.187 11.5885 12.187 10.4839V2ZM23.0063 5.65811C23.833 5.65811 24.5031 4.98798 24.5031 4.16133C24.5031 3.33468 23.833 2.66455 23.0063 2.66455C22.1797 2.66455 21.5096 3.33468 21.5096 4.16133C21.5096 4.98798 22.1797 5.65811 23.0063 5.65811ZM23.0063 6.65811C24.3853 6.65811 25.5031 5.54026 25.5031 4.16133C25.5031 2.7824 24.3853 1.66455 23.0063 1.66455C21.6274 1.66455 20.5096 2.7824 20.5096 4.16133C20.5096 5.54026 21.6274 6.65811 23.0063 6.65811ZM2 3H0V4H2V3ZM3 3H10V4H3V3ZM10 6H6V7H10V6ZM3 9H5V10H3V9ZM10 9H6V10H10V9Z"
    fill="#73B9E5"
  />
</svg>
