<svg
  width="12"
  height="14"
  viewBox="0 0 12 14"
  fill="none"
  xmlns="http://www.w3.org/2000/svg"
>
  <path
    d="M10.2339 3.76613C11.4113 4.92742 12 6.33871 12 8C12 9.66129 11.4113 11.0806 10.2339 12.2581C9.07258 13.4194 7.66129 14 6 14C5.3871 14 4.79839 13.9113 4.23387 13.7339C4.62097 13.0887 4.8629 12.5645 4.95968 12.1613L5.34677 10.7339C5.44355 10.9274 5.62097 11.0887 5.87903 11.2177C6.1371 11.3468 6.41935 11.4113 6.72581 11.4113C7.6129 11.4113 8.34677 11.0565 8.92742 10.3468C9.52419 9.62097 9.82258 8.73387 9.82258 7.68548C9.82258 6.70161 9.46774 5.87903 8.75806 5.21774C8.04839 4.55645 7.16935 4.22581 6.12097 4.22581C4.89516 4.22581 3.92742 4.58065 3.21774 5.29032C2.52419 6 2.17742 6.85484 2.17742 7.85484C2.17742 8.32258 2.29032 8.79032 2.51613 9.25806C2.74194 9.70968 3.03226 10.0161 3.3871 10.1774C3.5 10.2258 3.56452 10.2016 3.58065 10.1048C3.59677 10.0726 3.62097 9.96774 3.65323 9.79032C3.70161 9.59677 3.73387 9.47581 3.75 9.42742C3.76613 9.3629 3.75 9.30645 3.70161 9.25806C3.41129 8.8871 3.26613 8.42742 3.26613 7.87903C3.26613 7.18548 3.50806 6.58065 3.99194 6.06452C4.49194 5.53226 5.15323 5.26613 5.97581 5.26613C6.71774 5.26613 7.32258 5.5 7.79032 5.96774C8.25806 6.41935 8.49194 7 8.49194 7.70968C8.49194 8.24194 8.40323 8.71774 8.22581 9.1371C8.06452 9.55645 7.83871 9.8871 7.54839 10.129C7.25806 10.3548 6.94355 10.4677 6.60484 10.4677C6.29839 10.4677 6.05645 10.3629 5.87903 10.1532C5.70161 9.92742 5.64516 9.66935 5.70968 9.37903C5.74194 9.21774 5.80645 8.99194 5.90323 8.70161C6 8.41129 6.07258 8.16129 6.12097 7.95161C6.16935 7.72581 6.19355 7.53226 6.19355 7.37097C6.19355 7.22581 6.16935 7.08871 6.12097 6.95968C6.07258 6.83065 5.98387 6.73387 5.85484 6.66935C5.74194 6.58871 5.60484 6.54839 5.44355 6.54839C5.1371 6.54839 4.87903 6.68548 4.66935 6.95968C4.45968 7.23387 4.35484 7.58065 4.35484 8C4.35484 8.06452 4.35484 8.1371 4.35484 8.21774C4.37097 8.28226 4.37903 8.34677 4.37903 8.41129C4.39516 8.45968 4.41129 8.51613 4.42742 8.58065C4.44355 8.62903 4.45161 8.66935 4.45161 8.70161C4.46774 8.73387 4.48387 8.76613 4.5 8.79839C4.51613 8.83065 4.52419 8.85484 4.52419 8.87097L4.54839 8.89516C4.14516 10.5565 3.90323 11.5484 3.82258 11.871C3.74194 12.2742 3.74194 12.8468 3.82258 13.5887C2.67742 13.1532 1.75 12.4274 1.04032 11.4113C0.346774 10.3952 0 9.25806 0 8C0 6.33871 0.580645 4.92742 1.74194 3.76613C2.91935 2.58871 4.33871 2 6 2C7.66129 2 9.07258 2.58871 10.2339 3.76613Z"
    fill="#333333"
  />
</svg>
