<svg
  width="13"
  height="14"
  viewBox="0 0 13 14"
  fill="none"
  xmlns="http://www.w3.org/2000/svg"
>
  <rect
    x="2"
    y="6"
    width="2"
    height="2"
    fill="#333333"
  />
  <rect
    x="2"
    y="9"
    width="2"
    height="2"
    fill="#333333"
  />
  <rect
    x="2"
    y="12"
    width="2"
    height="2"
    fill="#333333"
  />
  <rect
    x="5"
    y="6"
    width="2"
    height="2"
    fill="#333333"
  />
  <rect
    x="5"
    y="9"
    width="2"
    height="2"
    fill="#333333"
  />
  <rect
    x="5"
    y="12"
    width="2"
    height="2"
    fill="#333333"
  />
  <rect
    x="8"
    y="6"
    width="2"
    height="2"
    fill="#333333"
  />
  <rect
    x="8"
    y="9"
    width="2"
    height="2"
    fill="#333333"
  />
  <rect
    x="8"
    y="12"
    width="2"
    height="2"
    fill="#333333"
  />
  <path
    fill-rule="evenodd"
    clip-rule="evenodd"
    d="M11 3H1L1 13H11V3ZM1 2C0.447715 2 0 2.44772 0 3V13C0 13.5523 0.447715 14 1 14H11C11.5523 14 12 13.5523 12 13V3C12 2.44772 11.5523 2 11 2H1Z"
    fill="#333333"
  />
  <path
    fill-rule="evenodd"
    clip-rule="evenodd"
    d="M9 5H5V4H9V5Z"
    fill="#333333"
  />
  <path
    fill-rule="evenodd"
    clip-rule="evenodd"
    d="M4 4.5C4 4.77614 3.77614 5 3.5 5H2.5C2.22386 5 2 4.77614 2 4.5C2 4.22386 2.22386 4 2.5 4H3.5C3.77614 4 4 4.22386 4 4.5Z"
    fill="#333333"
  />
  <circle
    cx="10"
    cy="3"
    r="3"
    fill="#F30D49"
  />
</svg>
