<svg
  width="12"
  height="14"
  viewBox="0 0 12 14"
  fill="none"
  xmlns="http://www.w3.org/2000/svg"
>
  <path
    d="M3.80357 5.83036C4.41071 5.22321 5.14286 4.91964 6 4.91964C6.85714 4.91964 7.58036 5.22321 8.16964 5.83036C8.77679 6.41964 9.08036 7.14286 9.08036 8C9.08036 8.85714 8.77679 9.58929 8.16964 10.1964C7.58036 10.7857 6.85714 11.0804 6 11.0804C5.14286 11.0804 4.41071 10.7857 3.80357 10.1964C3.21429 9.58929 2.91964 8.85714 2.91964 8C2.91964 7.14286 3.21429 6.41964 3.80357 5.83036ZM4.58036 9.41964C4.97321 9.8125 5.44643 10.0089 6 10.0089C6.55357 10.0089 7.02679 9.8125 7.41964 9.41964C7.8125 9.02679 8.00893 8.55357 8.00893 8C8.00893 7.44643 7.8125 6.97321 7.41964 6.58036C7.02679 6.1875 6.55357 5.99107 6 5.99107C5.44643 5.99107 4.97321 6.1875 4.58036 6.58036C4.1875 6.97321 3.99107 7.44643 3.99107 8C3.99107 8.55357 4.1875 9.02679 4.58036 9.41964ZM9.69643 4.30357C9.83929 4.42857 9.91072 4.58929 9.91072 4.78571C9.91072 4.98214 9.83929 5.15179 9.69643 5.29464C9.57143 5.4375 9.41072 5.50893 9.21429 5.50893C9.01786 5.50893 8.84822 5.4375 8.70536 5.29464C8.5625 5.15179 8.49107 4.98214 8.49107 4.78571C8.49107 4.58929 8.5625 4.42857 8.70536 4.30357C8.84822 4.16071 9.01786 4.08929 9.21429 4.08929C9.41072 4.08929 9.57143 4.16071 9.69643 4.30357ZM11.9732 5.53571C11.9911 6.01786 12 6.83929 12 8C12 9.16071 11.9911 9.98214 11.9732 10.4643C11.9196 11.5536 11.5893 12.4018 10.9821 13.0089C10.3929 13.5982 9.55357 13.9107 8.46429 13.9464C7.98214 13.9821 7.16071 14 6 14C4.83929 14 4.01786 13.9821 3.53571 13.9464C2.44643 13.8929 1.60714 13.5714 1.01786 12.9821C0.785714 12.7679 0.598214 12.5179 0.455357 12.2321C0.3125 11.9464 0.205357 11.6696 0.133929 11.4018C0.0803571 11.1339 0.0535714 10.8214 0.0535714 10.4643C0.0178571 9.98214 0 9.16071 0 8C0 6.83929 0.0178571 6.00893 0.0535714 5.50893C0.107143 4.4375 0.428571 3.60714 1.01786 3.01786C1.60714 2.41071 2.44643 2.08036 3.53571 2.02679C4.01786 2.00893 4.83929 2 6 2C7.16071 2 7.98214 2.00893 8.46429 2.02679C9.55357 2.08036 10.3929 2.41071 10.9821 3.01786C11.5893 3.60714 11.9196 4.44643 11.9732 5.53571ZM10.6875 11.5357C10.7411 11.3929 10.7857 11.2143 10.8214 11C10.8571 10.7679 10.8839 10.5 10.9018 10.1964C10.9196 9.875 10.9286 9.61607 10.9286 9.41964C10.9286 9.22321 10.9286 8.94643 10.9286 8.58929C10.9286 8.23214 10.9286 8.03571 10.9286 8C10.9286 7.94643 10.9286 7.75 10.9286 7.41071C10.9286 7.05357 10.9286 6.77679 10.9286 6.58036C10.9286 6.38393 10.9196 6.13393 10.9018 5.83036C10.8839 5.50893 10.8571 5.24107 10.8214 5.02679C10.7857 4.79464 10.7411 4.60714 10.6875 4.46429C10.4732 3.91071 10.0893 3.52679 9.53572 3.3125C9.39286 3.25893 9.20536 3.21429 8.97322 3.17857C8.75893 3.14286 8.49107 3.11607 8.16964 3.09821C7.86607 3.08036 7.61607 3.07143 7.41964 3.07143C7.24107 3.07143 6.96429 3.07143 6.58929 3.07143C6.23214 3.07143 6.03571 3.07143 6 3.07143C5.96429 3.07143 5.76786 3.07143 5.41071 3.07143C5.05357 3.07143 4.77679 3.07143 4.58036 3.07143C4.38393 3.07143 4.125 3.08036 3.80357 3.09821C3.5 3.11607 3.23214 3.14286 3 3.17857C2.78571 3.21429 2.60714 3.25893 2.46429 3.3125C1.91071 3.52679 1.52679 3.91071 1.3125 4.46429C1.25893 4.60714 1.21429 4.79464 1.17857 5.02679C1.14286 5.24107 1.11607 5.50893 1.09821 5.83036C1.08036 6.13393 1.07143 6.38393 1.07143 6.58036C1.07143 6.75893 1.07143 7.03571 1.07143 7.41071C1.07143 7.76786 1.07143 7.96429 1.07143 8C1.07143 8.07143 1.07143 8.24107 1.07143 8.50893C1.07143 8.75893 1.07143 8.97321 1.07143 9.15179C1.07143 9.3125 1.07143 9.52679 1.07143 9.79464C1.08929 10.0625 1.10714 10.2946 1.125 10.4911C1.14286 10.6696 1.16964 10.8571 1.20536 11.0536C1.24107 11.25 1.27679 11.4107 1.3125 11.5357C1.54464 12.0893 1.92857 12.4732 2.46429 12.6875C2.60714 12.7411 2.78571 12.7857 3 12.8214C3.23214 12.8571 3.5 12.8839 3.80357 12.9018C4.125 12.9196 4.375 12.9286 4.55357 12.9286C4.75 12.9286 5.02679 12.9286 5.38393 12.9286C5.75893 12.9286 5.96429 12.9286 6 12.9286C6.05357 12.9286 6.25 12.9286 6.58929 12.9286C6.94643 12.9286 7.22321 12.9286 7.41964 12.9286C7.61607 12.9286 7.86607 12.9196 8.16964 12.9018C8.49107 12.8839 8.75893 12.8571 8.97322 12.8214C9.20536 12.7857 9.39286 12.7411 9.53572 12.6875C10.0893 12.4554 10.4732 12.0714 10.6875 11.5357Z"
    fill="#333333"
  />
</svg>
