<svg
  width="46"
  height="49"
  viewBox="0 0 46 49"
  fill="none"
  xmlns="http://www.w3.org/2000/svg"
>
  <path
    d="M19.6378 13.6972L20.7848 13.193C22.2166 12.5635 23.5067 12.504 24.5939 13.0667L24.502 13.2444L24.5939 13.0667C25.0667 13.3114 25.4756 13.6625 25.8174 14.1117L27.5276 13.3709C27.5279 13.3707 27.5282 13.3706 27.5286 13.3704C28.5929 12.8957 29.7798 12.8654 30.8697 13.2851L30.7978 13.4717L30.8697 13.2851C31.9653 13.707 32.8295 14.5317 33.3016 15.6056L33.8293 16.8059L34.465 18.2519L34.8425 18.0877C36.0471 17.5639 37.3954 17.5076 38.6389 17.9292L38.5747 18.1186L38.6389 17.9292C39.8864 18.3522 40.9212 19.22 41.5516 20.3728C41.5517 20.3728 41.5517 20.3729 41.5517 20.3729L19.6378 13.6972ZM19.6378 13.6972L17.9967 9.9639C17.2724 8.31615 15.9216 7.17402 14.2842 6.84675C12.7506 6.5402 11.1836 6.97309 10.0943 8.01276L19.6378 13.6972ZM15.2788 28.5178L8.90648 13.9312C8.00695 11.8851 8.47346 9.55957 10.0943 8.01276L15.2788 28.5178ZM15.2788 28.5178C14.8312 28.4504 14.3686 28.4213 13.901 28.4327L13.9009 28.4327C12.3539 28.4708 10.9459 28.961 9.98991 29.8065C9.92242 29.8516 9.8589 29.9043 9.80053 29.9644C8.84755 30.9458 8.37106 32.142 8.43568 33.4199L8.63543 33.4098L8.43568 33.4199L15.2788 28.5178Z"
    fill="white"
    stroke="#158AD3"
    stroke-width="0.4"
  />
  <mask
    id="path-3-outside-1"
    maskUnits="userSpaceOnUse"
    x="7.62988"
    y="5.9502"
    width="39"
    height="43"
    fill="black"
  >
  <rect
    fill="white"
    x="7.62988"
    y="5.9502"
    width="39"
    height="43"
  />
    <path d="M43.1139 24.3525L41.6602 21.0458C41.5742 20.85 41.4786 20.6557 41.3762 20.4689C40.7699 19.3602 39.7749 18.5256 38.5747 18.1186C37.3783 17.713 36.0813 17.7671 34.9222 18.2712L34.3621 18.5148L33.6462 16.8864C33.6463 16.8866 33.6461 16.8862 33.6462 16.8864L33.1185 15.6861C32.6679 14.661 31.8437 13.8745 30.7978 13.4717C29.7571 13.0709 28.625 13.1 27.6091 13.5535L25.7504 14.3587C25.4065 13.8696 24.9889 13.4964 24.502 13.2444C23.485 12.718 22.2614 12.7623 20.8653 13.3761L19.5352 13.9608L17.8136 10.0444C17.1128 8.45005 15.812 7.35607 14.245 7.04287C12.7719 6.74842 11.272 7.16515 10.2324 8.15744C8.67226 9.64631 8.22401 11.8818 9.08957 13.8507L15.6113 28.7795C15.0652 28.669 14.4898 28.6184 13.9058 28.6326C12.389 28.67 11.0251 29.1524 10.1119 29.9657C10.052 30.0045 9.99563 30.0505 9.94401 30.1037C9.02625 31.0488 8.57385 32.1921 8.63543 33.4098C8.71247 34.9317 9.5818 36.4324 11.1494 37.75C11.1573 37.7567 11.1653 37.7632 11.1735 37.7696L24.5794 48.3206C24.7529 48.4572 24.9641 48.5276 25.1774 48.5276C25.3091 48.5276 25.4415 48.5007 25.5663 48.4458L44.7714 40.0032C45.1025 39.8577 45.3246 39.5395 45.3471 39.1785L45.4516 37.505C45.732 33.0172 44.9236 28.4691 43.1139 24.3525ZM35.2822 25.4119C35.4414 25.7741 35.7958 25.9897 36.1677 25.9897C36.2976 25.9897 36.4297 25.9635 36.5562 25.9078C37.045 25.693 37.267 25.1225 37.0521 24.6338L35.1401 20.2845L35.6933 20.044C37.1884 19.3938 38.9026 19.9751 39.6802 21.3968C39.7559 21.5351 39.8266 21.6787 39.8903 21.8237L41.344 25.1305C43.03 28.9658 43.7833 33.2033 43.5222 37.3846L43.4543 38.4703L25.3194 46.4426L12.382 36.2603C11.2595 35.3133 10.6149 34.2667 10.5665 33.3121C10.5352 32.6932 10.7473 32.1169 11.1974 31.5965C11.2299 31.5706 11.261 31.5425 11.2906 31.5121C12.4478 30.3202 15.3336 30.2379 16.8406 31.3431L20.1705 34.5412C20.358 34.7212 20.5992 34.8107 20.8401 34.8107C21.094 34.8107 21.3476 34.7113 21.5374 34.5137C21.9073 34.1286 21.8949 33.5166 21.5099 33.1468L18.27 30.035L10.8606 13.0745C10.2113 11.5974 10.8 10.2885 11.5675 9.55602C12.143 9.00676 13.0239 8.77022 13.8665 8.93871C14.8206 9.12943 15.5939 9.79837 16.0441 10.8224L21.6566 23.5894C21.8158 23.9516 22.1702 24.1673 22.5421 24.1673C22.672 24.1673 22.804 24.141 22.9306 24.0853C23.4193 23.8704 23.6414 23.3001 23.4265 22.8113L20.3137 15.7305L21.6438 15.1458C22.4787 14.779 23.1415 14.7168 23.6138 14.9613C23.9481 15.1343 24.2299 15.4773 24.4513 15.9807L27.7611 23.5099C27.9203 23.8722 28.2747 24.0878 28.6466 24.0878C28.7765 24.0878 28.9086 24.0615 29.0351 24.0058C29.5239 23.791 29.7459 23.2206 29.531 22.7319L26.6122 16.0923L28.3832 15.325C28.387 15.3234 28.3906 15.3218 28.3943 15.3201C28.9381 15.0764 29.545 15.0605 30.1035 15.2756C30.665 15.4919 31.1074 15.9138 31.3491 16.4639L35.2822 25.4119Z"/>
  </mask>
  <path
    d="M43.1139 24.3525L41.6602 21.0458C41.5742 20.85 41.4786 20.6557 41.3762 20.4689C40.7699 19.3602 39.7749 18.5256 38.5747 18.1186C37.3783 17.713 36.0813 17.7671 34.9222 18.2712L34.3621 18.5148L33.6462 16.8864C33.6463 16.8866 33.6461 16.8862 33.6462 16.8864L33.1185 15.6861C32.6679 14.661 31.8437 13.8745 30.7978 13.4717C29.7571 13.0709 28.625 13.1 27.6091 13.5535L25.7504 14.3587C25.4065 13.8696 24.9889 13.4964 24.502 13.2444C23.485 12.718 22.2614 12.7623 20.8653 13.3761L19.5352 13.9608L17.8136 10.0444C17.1128 8.45005 15.812 7.35607 14.245 7.04287C12.7719 6.74842 11.272 7.16515 10.2324 8.15744C8.67226 9.64631 8.22401 11.8818 9.08957 13.8507L15.6113 28.7795C15.0652 28.669 14.4898 28.6184 13.9058 28.6326C12.389 28.67 11.0251 29.1524 10.1119 29.9657C10.052 30.0045 9.99563 30.0505 9.94401 30.1037C9.02625 31.0488 8.57385 32.1921 8.63543 33.4098C8.71247 34.9317 9.5818 36.4324 11.1494 37.75C11.1573 37.7567 11.1653 37.7632 11.1735 37.7696L24.5794 48.3206C24.7529 48.4572 24.9641 48.5276 25.1774 48.5276C25.3091 48.5276 25.4415 48.5007 25.5663 48.4458L44.7714 40.0032C45.1025 39.8577 45.3246 39.5395 45.3471 39.1785L45.4516 37.505C45.732 33.0172 44.9236 28.4691 43.1139 24.3525ZM35.2822 25.4119C35.4414 25.7741 35.7958 25.9897 36.1677 25.9897C36.2976 25.9897 36.4297 25.9635 36.5562 25.9078C37.045 25.693 37.267 25.1225 37.0521 24.6338L35.1401 20.2845L35.6933 20.044C37.1884 19.3938 38.9026 19.9751 39.6802 21.3968C39.7559 21.5351 39.8266 21.6787 39.8903 21.8237L41.344 25.1305C43.03 28.9658 43.7833 33.2033 43.5222 37.3846L43.4543 38.4703L25.3194 46.4426L12.382 36.2603C11.2595 35.3133 10.6149 34.2667 10.5665 33.3121C10.5352 32.6932 10.7473 32.1169 11.1974 31.5965C11.2299 31.5706 11.261 31.5425 11.2906 31.5121C12.4478 30.3202 15.3336 30.2379 16.8406 31.3431L20.1705 34.5412C20.358 34.7212 20.5992 34.8107 20.8401 34.8107C21.094 34.8107 21.3476 34.7113 21.5374 34.5137C21.9073 34.1286 21.8949 33.5166 21.5099 33.1468L18.27 30.035L10.8606 13.0745C10.2113 11.5974 10.8 10.2885 11.5675 9.55602C12.143 9.00676 13.0239 8.77022 13.8665 8.93871C14.8206 9.12943 15.5939 9.79837 16.0441 10.8224L21.6566 23.5894C21.8158 23.9516 22.1702 24.1673 22.5421 24.1673C22.672 24.1673 22.804 24.141 22.9306 24.0853C23.4193 23.8704 23.6414 23.3001 23.4265 22.8113L20.3137 15.7305L21.6438 15.1458C22.4787 14.779 23.1415 14.7168 23.6138 14.9613C23.9481 15.1343 24.2299 15.4773 24.4513 15.9807L27.7611 23.5099C27.9203 23.8722 28.2747 24.0878 28.6466 24.0878C28.7765 24.0878 28.9086 24.0615 29.0351 24.0058C29.5239 23.791 29.7459 23.2206 29.531 22.7319L26.6122 16.0923L28.3832 15.325C28.387 15.3234 28.3906 15.3218 28.3943 15.3201C28.9381 15.0764 29.545 15.0605 30.1035 15.2756C30.665 15.4919 31.1074 15.9138 31.3491 16.4639L35.2822 25.4119Z"
    fill="#158AD3"
  />
  <path
    d="M43.1139 24.3525L43.4801 24.1915L43.4801 24.1915L43.1139 24.3525ZM41.6602 21.0458L41.294 21.2067L41.2941 21.2068L41.6602 21.0458ZM41.3762 20.4689L41.0253 20.6608L41.0254 20.6611L41.3762 20.4689ZM38.5747 18.1186L38.7032 17.7398L38.7032 17.7398L38.5747 18.1186ZM34.9222 18.2712L35.0818 18.638L35.0818 18.638L34.9222 18.2712ZM34.3621 18.5148L33.9959 18.6757L34.1562 19.0405L34.5216 18.8816L34.3621 18.5148ZM33.1185 15.6861L33.4847 15.5251L33.4847 15.5251L33.1185 15.6861ZM30.7978 13.4717L30.9416 13.0985L30.9416 13.0984L30.7978 13.4717ZM27.6091 13.5535L27.7681 13.9206L27.7721 13.9188L27.6091 13.5535ZM25.7504 14.3587L25.4231 14.5888L25.6105 14.8553L25.9094 14.7258L25.7504 14.3587ZM24.502 13.2444L24.6859 12.8891L24.6859 12.8891L24.502 13.2444ZM20.8653 13.3761L21.0262 13.7423L21.0263 13.7423L20.8653 13.3761ZM19.5352 13.9608L19.1691 14.1217L19.33 14.4879L19.6962 14.3269L19.5352 13.9608ZM17.8136 10.0444L17.4474 10.2054L17.4474 10.2054L17.8136 10.0444ZM14.245 7.04287L14.1666 7.43511L14.1666 7.43511L14.245 7.04287ZM10.2324 8.15744L10.5085 8.44681L10.5085 8.4468L10.2324 8.15744ZM9.08957 13.8507L9.45612 13.6905L9.45574 13.6897L9.08957 13.8507ZM15.6113 28.7795L15.532 29.1715L16.2857 29.324L15.9779 28.6193L15.6113 28.7795ZM13.9058 28.6326L13.8961 28.2328L13.896 28.2328L13.9058 28.6326ZM10.1119 29.9657L10.3295 30.3013L10.3551 30.2847L10.3779 30.2644L10.1119 29.9657ZM9.94401 30.1037L10.231 30.3824L10.231 30.3824L9.94401 30.1037ZM8.63543 33.4098L8.23594 33.43L8.23594 33.4301L8.63543 33.4098ZM11.1494 37.75L11.4069 37.4439L11.4067 37.4438L11.1494 37.75ZM11.1735 37.7696L11.4209 37.4553L11.4188 37.4537L11.1735 37.7696ZM24.5794 48.3206L24.8269 48.0063L24.8268 48.0062L24.5794 48.3206ZM25.5663 48.4458L25.4053 48.0797L25.4052 48.0797L25.5663 48.4458ZM44.7714 40.0032L44.6105 39.637L44.6104 39.637L44.7714 40.0032ZM45.3471 39.1785L44.9479 39.1536L44.9479 39.1536L45.3471 39.1785ZM45.4516 37.505L45.0524 37.4801L45.0524 37.4801L45.4516 37.505ZM35.2822 25.4119L34.9161 25.5728L34.9161 25.5728L35.2822 25.4119ZM36.5562 25.9078L36.3953 25.5416L36.3951 25.5417L36.5562 25.9078ZM37.0521 24.6338L36.6859 24.7948L36.6859 24.7948L37.0521 24.6338ZM35.1401 20.2845L34.9806 19.9177L34.6123 20.0779L34.774 20.4455L35.1401 20.2845ZM35.6933 20.044L35.8528 20.4109L35.8528 20.4108L35.6933 20.044ZM39.6802 21.3968L39.3293 21.5887L39.3293 21.5888L39.6802 21.3968ZM39.8903 21.8237L39.5241 21.9846L39.5241 21.9847L39.8903 21.8237ZM41.344 25.1305L41.7102 24.9695L41.7102 24.9695L41.344 25.1305ZM43.5222 37.3846L43.9214 37.4095L43.9214 37.4095L43.5222 37.3846ZM43.4543 38.4703L43.6153 38.8364L43.8383 38.7384L43.8535 38.4952L43.4543 38.4703ZM25.3194 46.4426L25.072 46.7569L25.2607 46.9054L25.4804 46.8088L25.3194 46.4426ZM12.382 36.2603L12.1239 36.5662L12.1346 36.5746L12.382 36.2603ZM10.5665 33.3121L10.1671 33.3323L10.1671 33.3323L10.5665 33.3121ZM11.1974 31.5965L10.9485 31.2833L10.9193 31.3065L10.8948 31.3348L11.1974 31.5965ZM11.2906 31.5121L11.5775 31.7908L11.5776 31.7907L11.2906 31.5121ZM16.8406 31.3431L17.1177 31.0546L17.0986 31.0362L17.0772 31.0205L16.8406 31.3431ZM20.1705 34.5412L19.8935 34.8297L19.8935 34.8297L20.1705 34.5412ZM21.5374 34.5137L21.8258 34.7908L21.8259 34.7908L21.5374 34.5137ZM21.5099 33.1468L21.787 32.8583L21.7869 32.8583L21.5099 33.1468ZM18.27 30.035L17.9034 30.1951L17.9353 30.2682L17.9929 30.3235L18.27 30.035ZM10.8606 13.0745L11.2272 12.9144L11.2268 12.9135L10.8606 13.0745ZM11.5675 9.55602L11.8437 9.8454L11.8437 9.84538L11.5675 9.55602ZM13.8665 8.93871L13.788 9.33094L13.7881 9.33095L13.8665 8.93871ZM16.0441 10.8224L16.4103 10.6614L16.4103 10.6614L16.0441 10.8224ZM21.6566 23.5894L22.0228 23.4284L22.0228 23.4284L21.6566 23.5894ZM22.9306 24.0853L22.7696 23.7191L22.7695 23.7192L22.9306 24.0853ZM23.4265 22.8113L23.0603 22.9723L23.0603 22.9723L23.4265 22.8113ZM20.3137 15.7305L20.1527 15.3644L19.7865 15.5253L19.9475 15.8915L20.3137 15.7305ZM21.6438 15.1458L21.4829 14.7796L21.4829 14.7796L21.6438 15.1458ZM23.6138 14.9613L23.7977 14.606L23.7977 14.606L23.6138 14.9613ZM24.4513 15.9807L24.8174 15.8197L24.8174 15.8197L24.4513 15.9807ZM27.7611 23.5099L28.1273 23.349L28.1273 23.349L27.7611 23.5099ZM29.0351 24.0058L28.8741 23.6397L28.874 23.6397L29.0351 24.0058ZM29.531 22.7319L29.1648 22.8928L29.1649 22.8929L29.531 22.7319ZM26.6122 16.0923L26.4532 15.7252L26.0842 15.8851L26.2461 16.2533L26.6122 16.0923ZM28.3832 15.325L28.5422 15.6921L28.543 15.6917L28.3832 15.325ZM28.3943 15.3201L28.2307 14.955L28.2231 14.9586L28.3943 15.3201ZM30.1035 15.2756L29.9597 15.6489L29.9597 15.6489L30.1035 15.2756ZM31.3491 16.4639L30.9829 16.6248L30.9829 16.6248L31.3491 16.4639ZM43.4801 24.1915L42.0264 20.8848L41.2941 21.2068L42.7478 24.5135L43.4801 24.1915ZM42.0265 20.8849C41.9358 20.6785 41.835 20.4738 41.727 20.2767L41.0254 20.6611C41.1222 20.8377 41.2127 21.0214 41.294 21.2067L42.0265 20.8849ZM41.7272 20.277C41.0726 19.08 39.998 18.1789 38.7032 17.7398L38.4463 18.4974C39.5519 18.8723 40.4673 19.6404 41.0253 20.6608L41.7272 20.277ZM38.7032 17.7398C37.4125 17.3023 36.0129 17.3607 34.7627 17.9043L35.0818 18.638C36.1497 18.1736 37.344 18.1237 38.4463 18.4974L38.7032 17.7398ZM34.7627 17.9043L34.2025 18.1479L34.5216 18.8816L35.0818 18.638L34.7627 17.9043ZM34.7282 18.3538L34.0124 16.7254L33.2801 17.0474L33.9959 18.6757L34.7282 18.3538ZM34.004 16.7075C34.004 16.7075 34.004 16.7075 34.004 16.7075C34.004 16.7075 34.004 16.7075 34.004 16.7075C34.004 16.7075 34.004 16.7075 34.004 16.7075C34.004 16.7075 34.004 16.7075 34.004 16.7075C34.004 16.7075 34.004 16.7075 34.004 16.7075C34.004 16.7075 34.004 16.7075 34.004 16.7075C34.004 16.7075 34.004 16.7075 34.004 16.7075C34.004 16.7075 34.004 16.7075 34.004 16.7075C34.004 16.7075 34.004 16.7075 34.004 16.7075C34.004 16.7075 34.004 16.7075 34.004 16.7075C34.004 16.7075 34.004 16.7075 34.004 16.7075C34.004 16.7075 34.004 16.7075 34.004 16.7075C34.004 16.7075 34.004 16.7075 34.004 16.7075C34.004 16.7075 34.004 16.7075 34.004 16.7075C34.004 16.7075 34.004 16.7075 34.004 16.7075C33.4673 16.5286 33.2884 17.0652 33.2884 17.0652C33.2884 17.0652 33.2884 17.0652 33.2884 17.0652C33.2884 17.0652 33.2884 17.0652 33.2884 17.0652C33.2884 17.0652 33.2884 17.0652 33.2884 17.0652C33.2884 17.0652 33.2884 17.0652 33.2884 17.0652C33.2884 17.0652 33.2884 17.0652 33.2884 17.0652C33.2884 17.0652 33.2884 17.0652 33.2884 17.0652C33.2884 17.0652 33.2884 17.0652 33.2884 17.0652C33.2885 17.0653 33.2884 17.0652 33.2884 17.0652C33.2884 17.0652 33.2885 17.0652 33.2885 17.0652C33.2885 17.0652 33.2885 17.0652 33.2885 17.0652C33.2885 17.0653 33.2884 17.0652 33.2885 17.0653C33.2885 17.0653 33.2885 17.0653 33.2885 17.0653C33.2885 17.0653 33.2885 17.0653 33.2885 17.0653C33.2885 17.0653 33.2885 17.0653 33.2885 17.0653C33.2885 17.0653 33.2885 17.0653 33.2885 17.0653C33.2885 17.0653 33.2885 17.0653 33.2885 17.0653C33.2885 17.0653 33.2885 17.0653 33.2885 17.0653C33.2885 17.0653 33.2885 17.0653 33.2885 17.0653C33.2885 17.0653 33.2885 17.0653 33.2885 17.0653C33.2885 17.0653 33.2885 17.0653 33.2885 17.0653C33.2885 17.0653 33.2885 17.0653 33.2885 17.0653C33.2885 17.0653 33.2885 17.0653 33.2885 17.0653C33.2885 17.0653 33.2885 17.0653 33.2885 17.0653C33.2885 17.0653 33.2885 17.0653 33.2885 17.0653C33.2885 17.0653 33.2885 17.0653 33.2885 17.0653C33.2885 17.0653 33.2885 17.0653 33.2885 17.0653C33.2885 17.0653 33.2885 17.0653 33.2885 17.0653C33.2885 17.0653 33.2885 17.0653 33.2885 17.0653C33.2885 17.0653 33.2885 17.0653 33.2885 17.0653C33.2885 17.0653 33.2885 17.0653 33.2885 17.0653C33.2885 17.0653 33.2885 17.0653 33.2885 17.0653C33.2885 17.0653 33.2885 17.0653 33.2885 17.0653C33.2885 17.0653 33.2885 17.0653 33.2885 17.0653C33.2885 17.0653 33.2885 17.0653 33.2885 17.0653C33.2885 17.0653 33.2885 17.0653 33.2885 17.0653C33.2885 17.0653 33.2885 17.0653 33.2885 17.0653C33.2885 17.0654 33.2885 17.0653 33.2885 17.0653C33.2885 17.0653 33.2885 17.0653 33.2885 17.0653C33.2885 17.0653 33.2885 17.0653 33.2885 17.0653C33.2885 17.0653 33.2885 17.0653 33.2885 17.0653C33.2885 17.0653 33.2885 17.0653 33.2885 17.0653C33.2885 17.0653 33.2885 17.0653 33.2885 17.0653C33.2885 17.0653 33.2885 17.0653 33.2885 17.0653C33.2885 17.0653 33.2885 17.0653 33.2885 17.0653C33.2885 17.0653 33.2885 17.0653 33.2885 17.0653C33.2885 17.0653 33.4674 16.5287 34.004 16.7076C34.004 16.7076 34.004 16.7076 34.004 16.7076C34.004 16.7076 34.004 16.7076 34.004 16.7076C34.004 16.7076 34.004 16.7076 34.004 16.7076C34.004 16.7076 34.004 16.7076 34.004 16.7076C34.004 16.7076 34.004 16.7076 34.004 16.7076C34.004 16.7076 34.004 16.7076 34.004 16.7076C34.004 16.7076 34.004 16.7076 34.004 16.7076C34.004 16.7075 34.004 16.7076 34.004 16.7075C34.004 16.7075 34.004 16.7076 34.004 16.7075C34.004 16.7075 34.004 16.7075 34.004 16.7075C34.004 16.7075 34.004 16.7075 34.004 16.7075L33.2885 17.0653C33.2885 17.0653 33.2885 17.0653 33.2885 17.0653C33.2885 17.0653 33.2885 17.0653 33.2885 17.0653C33.2885 17.0653 33.2885 17.0653 33.2885 17.0653C33.2885 17.0653 33.2885 17.0653 33.2885 17.0653C33.2885 17.0653 33.2885 17.0653 33.2885 17.0653C33.2885 17.0653 33.2885 17.0653 33.2885 17.0653C33.2885 17.0653 33.2885 17.0653 33.2885 17.0653C33.2885 17.0653 33.2885 17.0653 33.2885 17.0653C33.2885 17.0653 33.2885 17.0653 33.2885 17.0653C33.2885 17.0653 33.2885 17.0653 33.2885 17.0653C33.2885 17.0653 33.2885 17.0653 33.2885 17.0653C33.2885 17.0653 33.2885 17.0653 33.2885 17.0653C33.2885 17.0653 33.2885 17.0653 33.2885 17.0653C33.2885 17.0653 33.2885 17.0653 33.2885 17.0653C33.2885 17.0653 33.2885 17.0653 33.2885 17.0653C33.8252 17.2442 34.004 16.7076 34.004 16.7076C34.004 16.7076 34.004 16.7076 34.004 16.7076C34.004 16.7076 34.004 16.7076 34.004 16.7076C34.004 16.7076 34.004 16.7076 34.004 16.7076C34.004 16.7076 34.004 16.7076 34.004 16.7076C34.004 16.7076 34.004 16.7076 34.004 16.7076C34.004 16.7076 34.004 16.7076 34.004 16.7076C34.004 16.7076 34.004 16.7076 34.004 16.7076C34.004 16.7075 34.004 16.7076 34.004 16.7076C34.004 16.7076 34.004 16.7076 34.004 16.7076C34.004 16.7075 34.004 16.7076 34.004 16.7075C34.004 16.7075 34.004 16.7076 34.004 16.7075C34.004 16.7075 34.004 16.7075 34.004 16.7075C34.004 16.7075 34.004 16.7075 34.004 16.7075C34.004 16.7075 34.004 16.7075 34.004 16.7075C34.004 16.7075 34.004 16.7075 34.004 16.7075C34.004 16.7075 34.004 16.7075 34.004 16.7075C34.004 16.7075 34.004 16.7075 34.004 16.7075C34.004 16.7075 34.004 16.7075 34.004 16.7075C34.004 16.7075 34.004 16.7075 34.004 16.7075C34.004 16.7075 34.004 16.7075 34.004 16.7075C34.004 16.7075 34.004 16.7075 34.004 16.7075C34.004 16.7075 34.004 16.7075 34.004 16.7075C34.004 16.7075 34.004 16.7075 34.004 16.7075C34.004 16.7075 34.004 16.7075 34.004 16.7075C34.004 16.7075 34.004 16.7075 34.004 16.7075C34.004 16.7075 34.004 16.7075 34.004 16.7075C34.004 16.7075 34.004 16.7075 34.004 16.7075C34.004 16.7075 34.004 16.7075 34.004 16.7075C34.004 16.7075 34.004 16.7075 34.004 16.7075C34.004 16.7075 34.004 16.7075 34.004 16.7075C34.004 16.7075 34.004 16.7075 34.004 16.7075C34.004 16.7075 34.004 16.7075 34.004 16.7075C34.004 16.7075 34.004 16.7075 34.004 16.7075C34.004 16.7075 34.004 16.7075 34.004 16.7075C34.004 16.7075 34.004 16.7075 34.004 16.7075C34.004 16.7075 34.004 16.7075 34.004 16.7075C34.004 16.7074 34.004 16.7075 34.004 16.7075C34.004 16.7075 34.004 16.7075 34.004 16.7075C34.004 16.7075 34.004 16.7075 34.004 16.7075C34.004 16.7075 34.004 16.7075 34.004 16.7075C34.004 16.7075 34.004 16.7075 34.004 16.7075C34.004 16.7075 34.004 16.7075 34.004 16.7075C34.004 16.7075 34.004 16.7075 34.004 16.7075C34.004 16.7075 34.004 16.7075 34.004 16.7075C34.004 16.7075 34.004 16.7075 34.004 16.7075C34.004 16.7075 33.8251 17.2441 33.2884 17.0652C33.2884 17.0652 33.2884 17.0652 33.2884 17.0652C33.2884 17.0652 33.2884 17.0652 33.2884 17.0652C33.2884 17.0652 33.2884 17.0652 33.2884 17.0652C33.2884 17.0652 33.2884 17.0652 33.2884 17.0652C33.2884 17.0652 33.2884 17.0652 33.2884 17.0652C33.2884 17.0652 33.2884 17.0652 33.2884 17.0652C33.2884 17.0652 33.2884 17.0652 33.2884 17.0652C33.2885 17.0653 33.2884 17.0652 33.2885 17.0653C33.2885 17.0653 33.2884 17.0652 33.2885 17.0653C33.2885 17.0653 33.2885 17.0653 33.2885 17.0653C33.2885 17.0653 33.2885 17.0653 33.2885 17.0653L34.004 16.7075ZM34.0124 16.7254L33.4847 15.5251L32.7524 15.8471L33.2801 17.0474L34.0124 16.7254ZM33.4847 15.5251C32.9911 14.4024 32.0868 13.5395 30.9416 13.0985L30.6541 13.845C31.6005 14.2095 32.3446 14.9197 32.7524 15.8471L33.4847 15.5251ZM30.9416 13.0984C29.8019 12.6595 28.5593 12.6913 27.446 13.1882L27.7721 13.9188C28.6906 13.5088 29.7124 13.4823 30.6541 13.845L30.9416 13.0984ZM27.4501 13.1865L25.5914 13.9917L25.9094 14.7258L27.7681 13.9205L27.4501 13.1865ZM26.0776 14.1287C25.7003 13.592 25.2352 13.1735 24.6859 12.8891L24.3181 13.5996C24.7426 13.8193 25.1127 14.1472 25.4231 14.5888L26.0776 14.1287ZM24.6859 12.8891C23.5284 12.2901 22.1718 12.3647 20.7043 13.0099L21.0263 13.7423C22.3511 13.1598 23.4416 13.146 24.3182 13.5996L24.6859 12.8891ZM20.7043 13.0099L19.3743 13.5946L19.6962 14.3269L21.0262 13.7423L20.7043 13.0099ZM19.9014 13.7998L18.1798 9.88341L17.4474 10.2054L19.1691 14.1217L19.9014 13.7998ZM18.1798 9.88342C17.432 8.18224 16.0312 6.99197 14.3234 6.65063L14.1666 7.43511C15.5928 7.72017 16.7935 8.71786 17.4474 10.2054L18.1798 9.88342ZM14.3234 6.65063C12.7292 6.33198 11.0951 6.78104 9.95619 7.86808L10.5085 8.4468C11.4489 7.54926 12.8146 7.16486 14.1666 7.43511L14.3234 6.65063ZM9.95621 7.86807C8.27467 9.47282 7.78989 11.8883 8.72339 14.0116L9.45574 13.6897C8.65813 11.8754 9.06984 9.8198 10.5085 8.44681L9.95621 7.86807ZM8.72302 14.0108L15.2448 28.9396L15.9779 28.6193L9.45612 13.6905L8.72302 14.0108ZM15.6906 28.3874C15.1146 28.2709 14.5092 28.2178 13.8961 28.2328L13.9156 29.0325C14.4704 29.019 15.0159 29.0671 15.532 29.1715L15.6906 28.3874ZM13.896 28.2328C12.307 28.2719 10.845 28.7772 9.8459 29.667L10.3779 30.2644C11.2053 29.5276 12.4711 29.0681 13.9157 29.0325L13.896 28.2328ZM9.89431 29.63C9.80939 29.6851 9.72973 29.7502 9.65702 29.8251L10.231 30.3824C10.2615 30.3509 10.2946 30.324 10.3295 30.3013L9.89431 29.63ZM9.65705 29.8251C8.66884 30.8427 8.16827 32.0918 8.23594 33.43L9.03492 33.3896C8.97943 32.2924 9.38366 31.2549 10.231 30.3824L9.65705 29.8251ZM8.23594 33.4301C8.32033 35.0971 9.26988 36.6928 10.892 38.0562L11.4067 37.4438C9.89372 36.1721 9.10461 34.7662 9.03491 33.3896L8.23594 33.4301ZM10.8918 38.0561C10.9023 38.0649 10.9146 38.075 10.9282 38.0856L11.4188 37.4537C11.416 37.4515 11.4122 37.4484 11.4069 37.4439L10.8918 38.0561ZM10.9261 38.0839L24.332 48.6349L24.8268 48.0062L11.4209 37.4553L10.9261 38.0839ZM24.3319 48.6348C24.5773 48.8281 24.8761 48.9276 25.1774 48.9276V48.1276C25.0521 48.1276 24.9284 48.0863 24.8269 48.0063L24.3319 48.6348ZM25.1774 48.9276C25.3636 48.9276 25.551 48.8896 25.7274 48.812L25.4052 48.0797C25.3321 48.1119 25.2546 48.1276 25.1774 48.1276V48.9276ZM25.7273 48.812L44.9324 40.3694L44.6104 39.637L25.4053 48.0797L25.7273 48.812ZM44.9323 40.3694C45.4005 40.1637 45.7145 39.7138 45.7464 39.2035L44.9479 39.1536C44.9347 39.3652 44.8045 39.5518 44.6105 39.637L44.9323 40.3694ZM45.7464 39.2035L45.8509 37.53L45.0524 37.4801L44.9479 39.1536L45.7464 39.2035ZM45.8509 37.53C46.1352 32.9784 45.3155 28.3665 43.4801 24.1915L42.7478 24.5135C44.5318 28.5716 45.3288 33.056 45.0524 37.4801L45.8509 37.53ZM34.9161 25.5728C35.1414 26.0855 35.6429 26.3897 36.1677 26.3897V25.5897C35.9487 25.5897 35.7415 25.4627 35.6484 25.2509L34.9161 25.5728ZM36.1677 26.3897C36.3519 26.3897 36.5389 26.3524 36.7173 26.2739L36.3951 25.5417C36.3204 25.5745 36.2434 25.5897 36.1677 25.5897V26.3897ZM36.7171 26.274C37.4082 25.9703 37.7221 25.1638 37.4183 24.4728L36.6859 24.7948C36.8119 25.0813 36.6817 25.4157 36.3953 25.5416L36.7171 26.274ZM37.4183 24.4728L35.5063 20.1236L34.774 20.4455L36.6859 24.7948L37.4183 24.4728ZM35.2996 20.6514L35.8528 20.4109L35.5338 19.6772L34.9806 19.9177L35.2996 20.6514ZM35.8528 20.4108C37.1601 19.8422 38.652 20.3505 39.3293 21.5887L40.0311 21.2049C39.1532 19.5997 37.2167 18.9453 35.5337 19.6772L35.8528 20.4108ZM39.3293 21.5888C39.3994 21.717 39.465 21.8502 39.5241 21.9846L40.2565 21.6628C40.1881 21.5072 40.1124 21.3533 40.0311 21.2048L39.3293 21.5888ZM39.5241 21.9847L40.9779 25.2915L41.7102 24.9695L40.2564 21.6627L39.5241 21.9847ZM40.9779 25.2914C42.6382 29.0684 43.38 33.242 43.1229 37.3597L43.9214 37.4095C44.1865 33.1645 43.4219 28.8633 41.7102 24.9695L40.9779 25.2914ZM43.1229 37.3596L43.0551 38.4453L43.8535 38.4952L43.9214 37.4095L43.1229 37.3596ZM43.2933 38.1041L25.1584 46.0764L25.4804 46.8088L43.6153 38.8364L43.2933 38.1041ZM25.5668 46.1283L12.6293 35.9459L12.1346 36.5746L25.072 46.7569L25.5668 46.1283ZM12.6399 35.9545C11.5571 35.0411 11.0064 34.0883 10.966 33.2919L10.1671 33.3323C10.2234 34.4451 10.9618 35.5855 12.124 36.566L12.6399 35.9545ZM10.966 33.2919C10.9405 32.7878 11.1091 32.3101 11.5 31.8581L10.8948 31.3348C10.3855 31.9238 10.1299 32.5987 10.1671 33.3323L10.966 33.2919ZM11.4463 31.9096C11.4921 31.8732 11.536 31.8335 11.5775 31.7908L11.0037 31.2333C10.986 31.2515 10.9676 31.2681 10.9485 31.2833L11.4463 31.9096ZM11.5776 31.7907C12.0542 31.2998 12.944 30.9959 13.9463 30.966C14.9414 30.9364 15.9432 31.181 16.6041 31.6656L17.0772 31.0205C16.231 30.4 15.0365 30.1332 13.9225 30.1664C12.8159 30.1993 11.6841 30.5325 11.0036 31.2334L11.5776 31.7907ZM16.5636 31.6316L19.8935 34.8297L20.4476 34.2527L17.1177 31.0546L16.5636 31.6316ZM19.8935 34.8297C20.1583 35.0841 20.5 35.2107 20.8401 35.2107V34.4107C20.6983 34.4107 20.5576 34.3584 20.4476 34.2527L19.8935 34.8297ZM20.8401 35.2107C21.1984 35.2107 21.5575 35.07 21.8258 34.7908L21.249 34.2365C21.1376 34.3525 20.9896 34.4107 20.8401 34.4107V35.2107ZM21.8259 34.7908C22.3488 34.2464 22.3313 33.3812 21.787 32.8583L21.2328 33.4353C21.4585 33.6521 21.4657 34.0109 21.2489 34.2366L21.8259 34.7908ZM21.7869 32.8583L18.547 29.7465L17.9929 30.3235L21.2328 33.4353L21.7869 32.8583ZM18.6365 29.8749L11.2272 12.9144L10.4941 13.2346L17.9034 30.1951L18.6365 29.8749ZM11.2268 12.9135C10.6614 11.6275 11.166 10.4921 11.8437 9.8454L11.2914 9.26664C10.434 10.0848 9.76116 11.5674 10.4944 13.2355L11.2268 12.9135ZM11.8437 9.84538C12.3163 9.39433 13.0614 9.18562 13.788 9.33094L13.9449 8.54647C12.9865 8.35481 11.9697 8.61919 11.2914 9.26667L11.8437 9.84538ZM13.7881 9.33095C14.5937 9.49199 15.2712 10.0581 15.6779 10.9833L16.4103 10.6614C15.9167 9.5386 15.0475 8.76687 13.9449 8.54647L13.7881 9.33095ZM15.6779 10.9833L21.2904 23.7504L22.0228 23.4284L16.4103 10.6614L15.6779 10.9833ZM21.2904 23.7504C21.5158 24.263 22.0173 24.5673 22.5421 24.5673V23.7673C22.3231 23.7673 22.1159 23.6402 22.0228 23.4284L21.2904 23.7504ZM22.5421 24.5673C22.7263 24.5673 22.9133 24.5299 23.0917 24.4514L22.7695 23.7192C22.6948 23.752 22.6177 23.7673 22.5421 23.7673V24.5673ZM23.0916 24.4515C23.7825 24.1477 24.0965 23.3414 23.7927 22.6503L23.0603 22.9723C23.1863 23.2588 23.0561 23.5931 22.7696 23.7191L23.0916 24.4515ZM23.7927 22.6504L20.6799 15.5696L19.9475 15.8915L23.0603 22.9723L23.7927 22.6504ZM20.4747 16.0967L21.8048 15.512L21.4829 14.7796L20.1527 15.3644L20.4747 16.0967ZM21.8048 15.512C22.6054 15.1602 23.122 15.1571 23.43 15.3165L23.7977 14.606C23.161 14.2765 22.352 14.3977 21.4829 14.7796L21.8048 15.512ZM23.4299 15.3165C23.653 15.432 23.8841 15.6846 24.0851 16.1417L24.8174 15.8197C24.5757 15.2699 24.2432 14.8366 23.7977 14.606L23.4299 15.3165ZM24.0851 16.1417L27.395 23.6709L28.1273 23.349L24.8174 15.8197L24.0851 16.1417ZM27.395 23.6709C27.6203 24.1836 28.1218 24.4878 28.6466 24.4878V23.6878C28.4276 23.6878 28.2204 23.5607 28.1273 23.349L27.395 23.6709ZM28.6466 24.4878C28.8308 24.4878 29.0178 24.4505 29.1962 24.372L28.874 23.6397C28.7993 23.6726 28.7223 23.6878 28.6466 23.6878V24.4878ZM29.1961 24.372C29.887 24.0682 30.201 23.2619 29.8972 22.5709L29.1649 22.8929C29.2908 23.1793 29.1607 23.5137 28.8741 23.6397L29.1961 24.372ZM29.8972 22.5709L26.9784 15.9313L26.2461 16.2533L29.1648 22.8928L29.8972 22.5709ZM26.7713 16.4593L28.5422 15.6921L28.2242 14.958L26.4532 15.7252L26.7713 16.4593ZM28.543 15.6917C28.5433 15.6916 28.5437 15.6914 28.5448 15.6909C28.5458 15.6905 28.5474 15.6898 28.5492 15.689C28.5528 15.6874 28.5587 15.6849 28.5655 15.6816L28.2231 14.9586L28.2234 14.9584L28.543 15.6917ZM28.5579 15.6851C29.004 15.4852 29.5003 15.472 29.9597 15.6489L30.2472 14.9024C29.5898 14.6491 28.8722 14.6676 28.2307 14.9551L28.5579 15.6851ZM29.9597 15.6489C30.422 15.8269 30.7842 16.1725 30.9829 16.6248L31.7153 16.3029C31.4306 15.6551 30.9081 15.1568 30.2472 14.9024L29.9597 15.6489ZM30.9829 16.6248L34.9161 25.5728L35.6484 25.2509L31.7153 16.3029L30.9829 16.6248Z"
    fill="#CCCCCC"
    mask="url(#path-3-outside-1)"
  />
  <path
    d="M39.1588 37.9273C38.7866 37.9273 38.4321 37.7113 38.273 37.3487C38.0586 36.8597 38.2811 36.2896 38.77 36.0752L39.7236 35.6569C40.2127 35.4424 40.7828 35.6649 40.9971 36.1538C41.2115 36.6428 40.9891 37.2129 40.5002 37.4274L39.5465 37.8456C39.4203 37.9011 39.2884 37.9273 39.1588 37.9273Z"
    fill="#158AD3"
  />
  <path
    d="M26.0817 43.6857C25.7095 43.6857 25.3549 43.4697 25.1959 43.1071C24.9815 42.6181 25.2039 42.048 25.6929 41.8336L35.8771 37.3668C36.3662 37.1524 36.9362 37.3749 37.1505 37.8637C37.365 38.3527 37.1425 38.9228 36.6536 39.1372L26.4694 43.6041C26.3431 43.6595 26.2113 43.6857 26.0817 43.6857Z"
    fill="#158AD3"
  />
  <path
    d="M11.714 5.14045C11.2651 5.14045 10.8626 4.82599 10.7683 4.36905L10.1061 1.16221C9.99813 0.639333 10.3344 0.127964 10.8573 0.0200829C11.38 -0.0876044 11.8916 0.248508 11.9994 0.771284L12.6616 3.97812C12.7696 4.501 12.4333 5.01237 11.9104 5.12034C11.8446 5.13388 11.7787 5.14045 11.714 5.14045Z"
    fill="#158AD3"
  />
  <path
    d="M1.63361 4.99264C1.4599 4.99264 1.28406 4.94585 1.12553 4.84764L0.457844 4.43419C0.00399105 4.15309 -0.136177 3.55732 0.145029 3.10337C0.426137 2.64943 1.0219 2.50935 1.47585 2.79056L2.14353 3.20401C2.59738 3.48511 2.73755 4.08087 2.45634 4.53482C2.27345 4.83014 1.95715 4.99264 1.63361 4.99264Z"
    fill="#158AD3"
  />
  <path
    d="M6.92646 8.49888C6.74415 8.49888 6.5599 8.44745 6.39614 8.33976L4.33404 6.98343C3.88801 6.69004 3.76418 6.09061 4.05757 5.64458C4.35095 5.19856 4.95029 5.07473 5.39641 5.36812L7.45861 6.72445C7.90464 7.01784 8.02847 7.61727 7.73508 8.0633C7.54929 8.34566 7.24092 8.49888 6.92646 8.49888Z"
    fill="#158AD3"
  />
  <path
    d="M2.70805 14.922C2.25913 14.922 1.85671 14.6075 1.76236 14.1506C1.65438 13.6277 1.99069 13.1163 2.51356 13.0085L5.7204 12.3463C6.24347 12.2385 6.75464 12.5747 6.86262 13.0975C6.9706 13.6204 6.63429 14.1317 6.11142 14.2397L2.90458 14.9019C2.83865 14.9154 2.77282 14.922 2.70805 14.922Z"
    fill="#158AD3"
  />
  <path
    d="M6.96299 22.5854C6.78067 22.5854 6.59642 22.534 6.43267 22.4263C5.98665 22.1329 5.86282 21.5335 6.1562 21.0874L7.95557 18.3517C8.24886 17.9056 8.84829 17.7817 9.29441 18.0752C9.74043 18.3686 9.86426 18.968 9.57088 19.414L7.77151 22.1498C7.58581 22.4322 7.27745 22.5854 6.96299 22.5854Z"
    fill="#158AD3"
  />
  <path
    d="M20.8331 10.9387C20.3841 10.9387 19.9817 10.6242 19.8874 10.1673C19.7794 9.64447 20.1157 9.1331 20.6386 9.02513L22.7765 8.58365C23.2994 8.47567 23.8107 8.81198 23.9187 9.33485C24.0267 9.85772 23.6903 10.3691 23.1675 10.4771L21.0296 10.9185C20.9636 10.9321 20.8978 10.9387 20.8331 10.9387Z"
    fill="#158AD3"
  />
  <path
    d="M26.8457 9.69661C26.3968 9.69661 25.9944 9.38215 25.9001 8.9253C25.7921 8.40243 26.1284 7.89106 26.6513 7.78308L27.3194 7.64514C27.8426 7.53726 28.3537 7.87356 28.4616 8.39634C28.5696 8.91921 28.2333 9.43058 27.7104 9.53856L27.0423 9.67651C26.9763 9.69004 26.9105 9.69661 26.8457 9.69661Z"
    fill="#158AD3"
  />
  <path
    d="M17.4737 6.14985C17.2914 6.14985 17.1072 6.09842 16.9434 5.99073C16.4974 5.69735 16.3736 5.09791 16.6669 4.65189L18.4663 1.91611C18.7596 1.47009 19.359 1.34616 19.8052 1.63964C20.2512 1.93303 20.375 2.53246 20.0816 2.97848L18.2823 5.71427C18.0967 5.99663 17.7882 6.14985 17.4737 6.14985Z"
    fill="#158AD3"
  />
</svg>
