<svg width="12" height="12" viewBox="0 0 12 12" fill="none" xmlns="http://www.w3.org/2000/svg">
  <rect
    x="2"
    y="4"
    width="2"
    height="2"
    fill="#999999"
  />
  <rect
     x="2"
     y="7"
     width="2"
     height="2"
     fill="#999999"
  />
  <rect
    x="2"
    y="10"
    width="2"
    height="2"
    fill="#999999"
  />
  <rect
    x="5"
    y="4"
    width="2"
    height="2"
    fill="#999999"
  />
  <rect
    x="5"
    y="7"
    width="2"
    height="2"
    fill="#999999"
  />
  <rect
    x="5"
    y="10"
    width="2"
    height="2"
    fill="#999999"
  />
  <rect
    x="8"
    y="4"
    width="2"
    height="2"
    fill="#999999"
  />
  <rect
    x="8"
    y="7"
    width="2"
    height="2"
    fill="#999999"
  />
  <rect
    x="8"
    y="10"
    width="2"
    height="2"
    fill="#999999"
  />
  <path
    fill-rule="evenodd"
    clip-rule="evenodd"
    d="M11 1H1L1 11H11V1ZM1 0C0.447715 0 0 0.447715 0 1V11C0 11.5523 0.447715 12 1 12H11C11.5523 12 12 11.5523 12 11V1C12 0.447715 11.5523 0 11 0H1Z"
    fill="#999999"
  />
  <path
    fill-rule="evenodd"
    clip-rule="evenodd"
    d="M9 3H5V2H9V3Z"
    fill="#999999"
  />
  <path
    fill-rule="evenodd"
    clip-rule="evenodd"
    d="M4 2.5C4 2.77614 3.77614 3 3.5 3H2.5C2.22386 3 2 2.77614 2 2.5C2 2.22386 2.22386 2 2.5 2H3.5C3.77614 2 4 2.22386 4 2.5Z"
    fill="#999999"
  />
</svg>
