<svg
  width="49"
  height="50"
  viewBox="0 0 49 50"
  fill="none"
  xmlns="http://www.w3.org/2000/svg"
>
  <path
    fill-rule="evenodd"
    clip-rule="evenodd"
    d="M39 3H4C3.44772 3 3 3.44772 3 4V29.9055L11.9383 19.7673C12.9582 18.6105 14.7719 18.6439 15.7485 19.8375L24.7228 30.8062C24.8977 31.0199 25.2126 31.0514 25.4264 30.8766L31.289 26.0815C32.1625 25.367 33.4065 25.3263 34.3248 25.9823L40 30.036V4C40 3.44772 39.5523 3 39 3ZM3 39V30.6084L3.40142 30.9623L12.6884 20.4286C13.3003 19.7345 14.3886 19.7546 14.9745 20.4707L23.9489 31.4394C24.4734 32.0805 25.4183 32.1751 26.0595 31.6507L31.9221 26.8555C32.4462 26.4268 33.1926 26.4025 33.7436 26.796L39.6831 31.0385L40 30.5949V39C40 39.5523 39.5523 40 39 40H4C3.44772 40 3 39.5523 3 39ZM4 2C2.89543 2 2 2.89543 2 4V39C2 40.1046 2.89543 41 4 41H39C40.1046 41 41 40.1046 41 39V4C41 2.89543 40.1046 2 39 2H4ZM33.8426 13.2631C33.8426 16.1117 31.5334 18.421 28.6848 18.421C25.8361 18.421 23.5269 16.1117 23.5269 13.2631C23.5269 10.4145 25.8361 8.10522 28.6848 8.10522C31.5334 8.10522 33.8426 10.4145 33.8426 13.2631ZM34.8426 13.2631C34.8426 16.664 32.0857 19.421 28.6848 19.421C25.2838 19.421 22.5269 16.664 22.5269 13.2631C22.5269 9.86221 25.2838 7.10522 28.6848 7.10522C32.0857 7.10522 34.8426 9.86221 34.8426 13.2631Z"
    fill="#73CCA6"
  />
  <path
    d="M3 29.9055H1.75V33.2135L3.93763 30.7322L3 29.9055ZM11.9383 19.7673L12.8759 20.5939L11.9383 19.7673ZM15.7485 19.8375L14.781 20.629L14.781 20.629L15.7485 19.8375ZM24.7228 30.8062L23.7554 31.5977L23.7554 31.5977L24.7228 30.8062ZM25.4264 30.8766L24.635 29.909L24.635 29.909L25.4264 30.8766ZM31.289 26.0815L32.0804 27.0491H32.0804L31.289 26.0815ZM34.3248 25.9823L33.5983 26.9995H33.5983L34.3248 25.9823ZM40 30.036L39.2735 31.0532L41.25 32.465V30.036H40ZM3 30.6084L3.82665 29.6708L1.75 27.8399V30.6084H3ZM3.40142 30.9623L2.57477 31.9L3.51239 32.7266L4.33905 31.789L3.40142 30.9623ZM12.6884 20.4286L13.626 21.2553L12.6884 20.4286ZM14.9745 20.4707L14.007 21.2623H14.007L14.9745 20.4707ZM23.9489 31.4394L22.9814 32.231H22.9814L23.9489 31.4394ZM26.0595 31.6507L25.2681 30.6831L26.0595 31.6507ZM31.9221 26.8555L31.1307 25.888L31.1307 25.888L31.9221 26.8555ZM33.7436 26.796L33.0171 27.8132H33.0171L33.7436 26.796ZM39.6831 31.0385L38.9566 32.0557L39.9737 32.7823L40.7003 31.7651L39.6831 31.0385ZM40 30.5949H41.25V26.6943L38.9828 29.8684L40 30.5949ZM4 4.25H39V1.75H4V4.25ZM4.25 4C4.25 4.13807 4.13807 4.25 4 4.25V1.75C2.75736 1.75 1.75 2.75736 1.75 4H4.25ZM4.25 29.9055V4H1.75V29.9055H4.25ZM11.0007 18.9406L2.06237 29.0789L3.93763 30.7322L12.8759 20.5939L11.0007 18.9406ZM16.7159 19.046C15.2511 17.2556 12.5305 17.2055 11.0007 18.9406L12.8759 20.5939C13.3859 20.0156 14.2927 20.0323 14.781 20.629L16.7159 19.046ZM25.6903 30.0146L16.7159 19.0459L14.781 20.629L23.7554 31.5977L25.6903 30.0146ZM24.635 29.909C24.9556 29.6468 25.428 29.6941 25.6903 30.0146L23.7554 31.5977C24.3673 32.3457 25.4697 32.456 26.2178 31.8442L24.635 29.909ZM30.4976 25.1139L24.635 29.909L26.2178 31.8442L32.0804 27.0491L30.4976 25.1139ZM35.0514 24.9651C33.6739 23.9812 31.8079 24.0421 30.4976 25.1139L32.0804 27.0491C32.5171 26.6918 33.1391 26.6715 33.5983 26.9995L35.0514 24.9651ZM40.7265 29.0188L35.0514 24.9651L33.5983 26.9995L39.2735 31.0532L40.7265 29.0188ZM38.75 4V30.036H41.25V4H38.75ZM39 4.25C38.8619 4.25 38.75 4.13807 38.75 4H41.25C41.25 2.75736 40.2426 1.75 39 1.75V4.25ZM1.75 30.6084V39H4.25V30.6084H1.75ZM4.22807 30.0247L3.82665 29.6708L2.17335 31.5461L2.57477 31.9L4.22807 30.0247ZM11.7508 19.602L2.46379 30.1357L4.33905 31.789L13.626 21.2553L11.7508 19.602ZM15.9419 19.6792C14.8677 18.3663 12.8726 18.3295 11.7508 19.602L13.626 21.2553C13.728 21.1396 13.9094 21.1429 14.007 21.2623L15.9419 19.6792ZM24.9163 30.6479L15.9419 19.6792L14.007 21.2623L22.9814 32.231L24.9163 30.6479ZM25.2681 30.6831C25.1612 30.7705 25.0037 30.7547 24.9163 30.6479L22.9814 32.231C23.9431 33.4063 25.6754 33.5797 26.8509 32.6182L25.2681 30.6831ZM31.1307 25.888L25.2681 30.6831L26.8509 32.6182L32.7135 27.8231L31.1307 25.888ZM34.4701 25.7789C33.46 25.0573 32.0916 25.102 31.1307 25.888L32.7135 27.8231C32.8008 27.7517 32.9252 27.7476 33.0171 27.8132L34.4701 25.7789ZM40.4097 30.0214L34.4701 25.7789L33.0171 27.8132L38.9566 32.0557L40.4097 30.0214ZM38.9828 29.8684L38.666 30.312L40.7003 31.7651L41.0172 31.3215L38.9828 29.8684ZM41.25 39V30.5949H38.75V39H41.25ZM39 41.25C40.2426 41.25 41.25 40.2426 41.25 39H38.75C38.75 38.8619 38.8619 38.75 39 38.75V41.25ZM4 41.25H39V38.75H4V41.25ZM1.75 39C1.75 40.2426 2.75736 41.25 4 41.25V38.75C4.13807 38.75 4.25 38.8619 4.25 39H1.75ZM3.25 4C3.25 3.58579 3.58579 3.25 4 3.25V0.75C2.20507 0.75 0.75 2.20507 0.75 4H3.25ZM3.25 39V4H0.75V39H3.25ZM4 39.75C3.58579 39.75 3.25 39.4142 3.25 39H0.75C0.75 40.7949 2.20507 42.25 4 42.25V39.75ZM39 39.75H4V42.25H39V39.75ZM39.75 39C39.75 39.4142 39.4142 39.75 39 39.75V42.25C40.7949 42.25 42.25 40.7949 42.25 39H39.75ZM39.75 4V39H42.25V4H39.75ZM39 3.25C39.4142 3.25 39.75 3.58579 39.75 4H42.25C42.25 2.20507 40.7949 0.75 39 0.75V3.25ZM4 3.25H39V0.75H4V3.25ZM28.6848 19.671C32.2237 19.671 35.0926 16.8021 35.0926 13.2631H32.5926C32.5926 15.4214 30.843 17.171 28.6848 17.171V19.671ZM22.2769 13.2631C22.2769 16.8021 25.1458 19.671 28.6848 19.671V17.171C26.5265 17.171 24.7769 15.4214 24.7769 13.2631H22.2769ZM28.6848 6.85522C25.1458 6.85522 22.2769 9.72414 22.2769 13.2631H24.7769C24.7769 11.1048 26.5265 9.35522 28.6848 9.35522V6.85522ZM35.0926 13.2631C35.0926 9.72414 32.2237 6.85522 28.6848 6.85522V9.35522C30.843 9.35522 32.5926 11.1048 32.5926 13.2631H35.0926ZM28.6848 20.671C32.776 20.671 36.0926 17.3544 36.0926 13.2631H33.5926C33.5926 15.9737 31.3953 18.171 28.6848 18.171V20.671ZM21.2769 13.2631C21.2769 17.3544 24.5935 20.671 28.6848 20.671V18.171C25.9742 18.171 23.7769 15.9737 23.7769 13.2631H21.2769ZM28.6848 5.85522C24.5935 5.85522 21.2769 9.17185 21.2769 13.2631H23.7769C23.7769 10.5526 25.9742 8.35522 28.6848 8.35522V5.85522ZM36.0926 13.2631C36.0926 9.17185 32.776 5.85522 28.6848 5.85522V8.35522C31.3953 8.35522 33.5926 10.5526 33.5926 13.2631H36.0926Z"
    fill="#A1D0ED"
  />
  <path
    d="M42.9625 31.7972C42.9625 30.5573 43.9006 29.5525 45.0581 29.5525H45.1047C46.2598 29.5525 47.1977 30.5532 47.2004 31.7909C47.2101 35.8403 47.2039 36.2377 47.1982 42.2857C47.1947 45.6817 44.6239 48.4321 41.4541 48.4321H34.6481C32.5655 48.4321 30.6454 47.2239 29.6306 45.2753L23.5625 33.6171L24.1964 33.0912C25.5092 31.8847 27.4835 32.0331 28.6258 33.4234L30.3241 35.4908L30.3338 21.268C30.3346 20.0286 31.2728 19.0244 32.4295 19.0244H32.4303C33.5878 19.0244 34.5259 20.03 34.5259 21.2699V29.8776C34.5538 28.664 35.4809 27.6909 36.6202 27.6909H36.6695C37.8271 27.6909 38.7655 28.696 38.7655 29.9358V30.6586C38.7655 29.4184 39.7036 28.4137 40.8617 28.4137H40.8665C42.0241 28.4137 42.9625 29.4184 42.9625 30.6586V31.7972Z"
    fill="white"
  />
  <mask
    id="path-5-outside-1"
    maskUnits="userSpaceOnUse"
    x="22.0078"
    y="15"
    width="27"
    height="35"
    fill="black"
  >
    <rect
      fill="white"
      x="22.0078"
      y="15"
      width="27"
      height="35"
    />
    <path
      d="M45.1049 29.0257H45.0583C44.4255 29.0228 43.8143 29.2555 43.3441 29.6786C42.9634 28.6243 41.9958 27.8658 40.8618 27.8658C40.1664 27.8706 39.5027 28.1564 39.0211 28.6584C38.5787 27.762 37.6913 27.1533 36.6697 27.1533H36.6204C36.0746 27.1441 35.5412 27.3188 35.1066 27.6496V21.2697C35.1066 19.7259 33.9047 18.4694 32.4426 18.4694C30.982 18.4694 29.7865 19.7248 29.7857 21.2673L29.7738 33.9428L29.0562 33.0713C28.4271 32.2884 27.5012 31.8024 26.5 31.729C25.5185 31.6616 24.5528 32.0032 23.8322 32.6728L23.2086 33.19C23.0073 33.3566 22.9499 33.6413 23.0704 33.8732L29.1385 45.5377C30.2481 47.6691 32.3595 48.9989 34.648 48.9989H41.454C44.9236 48.9989 47.7494 45.9871 47.7532 42.2923C47.7548 40.6174 47.7561 39.3726 47.7575 38.3671C47.761 35.7144 47.7621 34.7343 47.7551 31.8057C47.7518 30.2656 46.5628 29.0257 45.1049 29.0257ZM46.6482 38.3624C46.6468 39.368 46.6452 40.6158 46.6436 42.2907C46.6403 45.3743 44.3125 47.8888 41.4543 47.8888H34.6483C32.7748 47.8888 31.0408 46.7879 30.123 45.0249L24.2616 33.761L24.5506 33.5196C24.5577 33.5137 24.565 33.5066 24.572 33.5004C25.0697 33.0317 25.7396 32.7912 26.4217 32.8362C27.1182 32.8893 27.7613 33.2298 28.1972 33.7756L29.8954 35.8428C30.0441 36.0241 30.2904 36.0921 30.5112 36.0132C30.7317 35.9341 30.8788 35.7253 30.879 35.4909L30.8888 21.2681C30.8893 20.3367 31.5934 19.579 32.4432 19.579C33.293 19.579 33.997 20.3375 33.997 21.2697V29.8726C33.997 29.8934 33.9957 29.914 33.9957 29.9351C33.9957 29.9441 33.997 29.953 33.997 29.962V33.641C33.997 33.9474 34.2455 34.1958 34.5518 34.1958C34.8582 34.1958 35.1066 33.9474 35.1066 33.641V29.8872C35.1066 28.9819 35.7931 28.2629 36.6204 28.2629H36.6697C37.5195 28.2629 38.2274 29.0038 38.2274 29.9357V33.2907C38.2274 33.5974 38.4758 33.8455 38.7822 33.8455C39.0885 33.8455 39.337 33.5974 39.337 33.2907V30.6584C39.337 29.7265 40.0104 28.9683 40.8654 28.9683C41.7152 28.9683 42.3883 29.7265 42.3883 30.6584V33.1417C42.3883 33.4481 42.6367 33.6965 42.9431 33.6965C43.2495 33.6965 43.4979 33.4481 43.4979 33.1417V31.797C43.4979 30.8651 44.2085 30.1353 45.0583 30.1353H45.1049C45.9522 30.1353 46.6436 30.877 46.6457 31.8065C46.6528 34.7332 46.6514 35.7112 46.6482 38.3624Z"
    />
    <path
      d="M28.0231 21.5092C28.3295 21.5092 28.5779 21.2608 28.5779 20.9544C28.5779 18.8309 30.2992 17.1096 32.4228 17.1096C34.5461 17.1096 36.2673 18.8309 36.2673 20.9544C36.2673 21.2608 36.5157 21.5092 36.8221 21.5092C37.1288 21.5092 37.3769 21.2608 37.3769 20.9544C37.3769 18.2181 35.1588 16 32.4228 16C29.6865 16 27.4684 18.2181 27.4684 20.9544C27.4684 21.2608 27.7168 21.5092 28.0231 21.5092Z"
    />
  </mask>
  <path
    d="M45.1049 29.0257H45.0583C44.4255 29.0228 43.8143 29.2555 43.3441 29.6786C42.9634 28.6243 41.9958 27.8658 40.8618 27.8658C40.1664 27.8706 39.5027 28.1564 39.0211 28.6584C38.5787 27.762 37.6913 27.1533 36.6697 27.1533H36.6204C36.0746 27.1441 35.5412 27.3188 35.1066 27.6496V21.2697C35.1066 19.7259 33.9047 18.4694 32.4426 18.4694C30.982 18.4694 29.7865 19.7248 29.7857 21.2673L29.7738 33.9428L29.0562 33.0713C28.4271 32.2884 27.5012 31.8024 26.5 31.729C25.5185 31.6616 24.5528 32.0032 23.8322 32.6728L23.2086 33.19C23.0073 33.3566 22.9499 33.6413 23.0704 33.8732L29.1385 45.5377C30.2481 47.6691 32.3595 48.9989 34.648 48.9989H41.454C44.9236 48.9989 47.7494 45.9871 47.7532 42.2923C47.7548 40.6174 47.7561 39.3726 47.7575 38.3671C47.761 35.7144 47.7621 34.7343 47.7551 31.8057C47.7518 30.2656 46.5628 29.0257 45.1049 29.0257ZM46.6482 38.3624C46.6468 39.368 46.6452 40.6158 46.6436 42.2907C46.6403 45.3743 44.3125 47.8888 41.4543 47.8888H34.6483C32.7748 47.8888 31.0408 46.7879 30.123 45.0249L24.2616 33.761L24.5506 33.5196C24.5577 33.5137 24.565 33.5066 24.572 33.5004C25.0697 33.0317 25.7396 32.7912 26.4217 32.8362C27.1182 32.8893 27.7613 33.2298 28.1972 33.7756L29.8954 35.8428C30.0441 36.0241 30.2904 36.0921 30.5112 36.0132C30.7317 35.9341 30.8788 35.7253 30.879 35.4909L30.8888 21.2681C30.8893 20.3367 31.5934 19.579 32.4432 19.579C33.293 19.579 33.997 20.3375 33.997 21.2697V29.8726C33.997 29.8934 33.9957 29.914 33.9957 29.9351C33.9957 29.9441 33.997 29.953 33.997 29.962V33.641C33.997 33.9474 34.2455 34.1958 34.5518 34.1958C34.8582 34.1958 35.1066 33.9474 35.1066 33.641V29.8872C35.1066 28.9819 35.7931 28.2629 36.6204 28.2629H36.6697C37.5195 28.2629 38.2274 29.0038 38.2274 29.9357V33.2907C38.2274 33.5974 38.4758 33.8455 38.7822 33.8455C39.0885 33.8455 39.337 33.5974 39.337 33.2907V30.6584C39.337 29.7265 40.0104 28.9683 40.8654 28.9683C41.7152 28.9683 42.3883 29.7265 42.3883 30.6584V33.1417C42.3883 33.4481 42.6367 33.6965 42.9431 33.6965C43.2495 33.6965 43.4979 33.4481 43.4979 33.1417V31.797C43.4979 30.8651 44.2085 30.1353 45.0583 30.1353H45.1049C45.9522 30.1353 46.6436 30.877 46.6457 31.8065C46.6528 34.7332 46.6514 35.7112 46.6482 38.3624Z"
    fill="#158AD3"
  />
  <path
    d="M28.0231 21.5092C28.3295 21.5092 28.5779 21.2608 28.5779 20.9544C28.5779 18.8309 30.2992 17.1096 32.4228 17.1096C34.5461 17.1096 36.2673 18.8309 36.2673 20.9544C36.2673 21.2608 36.5157 21.5092 36.8221 21.5092C37.1288 21.5092 37.3769 21.2608 37.3769 20.9544C37.3769 18.2181 35.1588 16 32.4228 16C29.6865 16 27.4684 18.2181 27.4684 20.9544C27.4684 21.2608 27.7168 21.5092 28.0231 21.5092Z"
    fill="#158AD3"
  />
  <path
    d="M45.1049 29.0257H45.0583C44.4255 29.0228 43.8143 29.2555 43.3441 29.6786C42.9634 28.6243 41.9958 27.8658 40.8618 27.8658C40.1664 27.8706 39.5027 28.1564 39.0211 28.6584C38.5787 27.762 37.6913 27.1533 36.6697 27.1533H36.6204C36.0746 27.1441 35.5412 27.3188 35.1066 27.6496V21.2697C35.1066 19.7259 33.9047 18.4694 32.4426 18.4694C30.982 18.4694 29.7865 19.7248 29.7857 21.2673L29.7738 33.9428L29.0562 33.0713C28.4271 32.2884 27.5012 31.8024 26.5 31.729C25.5185 31.6616 24.5528 32.0032 23.8322 32.6728L23.2086 33.19C23.0073 33.3566 22.9499 33.6413 23.0704 33.8732L29.1385 45.5377C30.2481 47.6691 32.3595 48.9989 34.648 48.9989H41.454C44.9236 48.9989 47.7494 45.9871 47.7532 42.2923C47.7548 40.6174 47.7561 39.3726 47.7575 38.3671C47.761 35.7144 47.7621 34.7343 47.7551 31.8057C47.7518 30.2656 46.5628 29.0257 45.1049 29.0257ZM46.6482 38.3624C46.6468 39.368 46.6452 40.6158 46.6436 42.2907C46.6403 45.3743 44.3125 47.8888 41.4543 47.8888H34.6483C32.7748 47.8888 31.0408 46.7879 30.123 45.0249L24.2616 33.761L24.5506 33.5196C24.5577 33.5137 24.565 33.5066 24.572 33.5004C25.0697 33.0317 25.7396 32.7912 26.4217 32.8362C27.1182 32.8893 27.7613 33.2298 28.1972 33.7756L29.8954 35.8428C30.0441 36.0241 30.2904 36.0921 30.5112 36.0132C30.7317 35.9341 30.8788 35.7253 30.879 35.4909L30.8888 21.2681C30.8893 20.3367 31.5934 19.579 32.4432 19.579C33.293 19.579 33.997 20.3375 33.997 21.2697V29.8726C33.997 29.8934 33.9957 29.914 33.9957 29.9351C33.9957 29.9441 33.997 29.953 33.997 29.962V33.641C33.997 33.9474 34.2455 34.1958 34.5518 34.1958C34.8582 34.1958 35.1066 33.9474 35.1066 33.641V29.8872C35.1066 28.9819 35.7931 28.2629 36.6204 28.2629H36.6697C37.5195 28.2629 38.2274 29.0038 38.2274 29.9357V33.2907C38.2274 33.5974 38.4758 33.8455 38.7822 33.8455C39.0885 33.8455 39.337 33.5974 39.337 33.2907V30.6584C39.337 29.7265 40.0104 28.9683 40.8654 28.9683C41.7152 28.9683 42.3883 29.7265 42.3883 30.6584V33.1417C42.3883 33.4481 42.6367 33.6965 42.9431 33.6965C43.2495 33.6965 43.4979 33.4481 43.4979 33.1417V31.797C43.4979 30.8651 44.2085 30.1353 45.0583 30.1353H45.1049C45.9522 30.1353 46.6436 30.877 46.6457 31.8065C46.6528 34.7332 46.6514 35.7112 46.6482 38.3624Z"
    stroke="#158AD3"
    mask="url(#path-5-outside-1)"
  />
  <path
    d="M28.0231 21.5092C28.3295 21.5092 28.5779 21.2608 28.5779 20.9544C28.5779 18.8309 30.2992 17.1096 32.4228 17.1096C34.5461 17.1096 36.2673 18.8309 36.2673 20.9544C36.2673 21.2608 36.5157 21.5092 36.8221 21.5092C37.1288 21.5092 37.3769 21.2608 37.3769 20.9544C37.3769 18.2181 35.1588 16 32.4228 16C29.6865 16 27.4684 18.2181 27.4684 20.9544C27.4684 21.2608 27.7168 21.5092 28.0231 21.5092Z"
    stroke="#158AD3"
    mask="url(#path-5-outside-1)"
  />
</svg>
